<?xml version="1.0" standalone="no"?>
<!DOCTYPE svg PUBLIC "-//W3C//DTD SVG 20010904//EN"
 "http://www.w3.org/TR/2001/REC-SVG-20010904/DTD/svg10.dtd">
<svg version="1.0" xmlns="http://www.w3.org/2000/svg"
 width="1777.000000pt" height="1777.000000pt" viewBox="0 0 1777.000000 1777.000000"
 preserveAspectRatio="xMidYMid meet">
<metadata>
Created by potrace 1.14, written by Peter Selinger 2001-2017
</metadata>
<g transform="translate(0.000000,1777.000000) scale(0.100000,-0.100000)"
fill="#000000" stroke="none">
<path d="M8318 17761 c-1 -5 -60 -11 -130 -15 -70 -3 -133 -8 -140 -10 -7 -3
-50 -7 -95 -10 -45 -3 -88 -8 -95 -10 -7 -3 -38 -7 -68 -11 -90 -9 -153 -17
-180 -21 -14 -2 -43 -7 -65 -10 -22 -3 -60 -9 -85 -14 -25 -5 -64 -11 -88 -14
-24 -3 -46 -7 -50 -10 -4 -2 -29 -7 -56 -10 -27 -4 -52 -9 -55 -10 -3 -2 -26
-7 -51 -10 -25 -3 -60 -10 -77 -15 -18 -5 -33 -8 -33 -5 0 3 -8 0 -19 -5 -10
-6 -35 -11 -55 -13 -20 -1 -36 -6 -36 -10 0 -4 -12 -8 -27 -8 -16 0 -46 -5
-68 -12 -22 -6 -44 -12 -50 -13 -5 0 -23 -5 -40 -9 -16 -4 -55 -14 -85 -21
-30 -8 -89 -24 -130 -35 -41 -12 -88 -26 -105 -30 -16 -5 -60 -17 -98 -29 -37
-11 -68 -20 -70 -20 -1 0 -9 -2 -17 -5 -115 -37 -148 -49 -165 -55 -41 -16
-92 -31 -108 -31 -9 0 -17 -4 -17 -10 0 -5 -8 -10 -19 -10 -17 0 -106 -31
-143 -51 -10 -5 -24 -9 -32 -9 -8 0 -34 -10 -58 -21 -47 -24 -45 -23 -168 -69
-91 -34 -118 -45 -252 -109 -48 -22 -90 -41 -93 -41 -4 0 -53 -22 -110 -50
-57 -27 -107 -50 -113 -50 -6 0 -12 -3 -14 -7 -1 -5 -61 -37 -133 -73 -71 -36
-131 -68 -133 -72 -2 -5 -12 -8 -23 -8 -10 0 -19 -4 -19 -10 0 -5 -6 -10 -12
-10 -7 0 -24 -9 -38 -20 -14 -11 -33 -20 -42 -20 -10 0 -18 -3 -18 -8 0 -4
-21 -19 -47 -32 -27 -14 -50 -27 -53 -30 -6 -6 -41 -27 -95 -55 -70 -37 -105
-60 -105 -67 0 -5 -7 -8 -15 -8 -8 0 -15 -4 -15 -10 0 -5 -9 -10 -21 -10 -11
0 -17 -4 -14 -10 3 -5 1 -10 -5 -10 -7 0 -31 -12 -54 -27 -22 -16 -53 -34 -68
-42 -16 -8 -28 -18 -28 -23 0 -4 -7 -8 -15 -8 -8 0 -15 -4 -15 -10 0 -5 -7
-10 -15 -10 -8 0 -15 -4 -15 -10 0 -5 -9 -10 -21 -10 -11 0 -17 -4 -14 -10 3
-5 -1 -10 -9 -10 -9 0 -16 -4 -16 -10 0 -5 -7 -10 -15 -10 -8 0 -15 -4 -15
-10 0 -5 -7 -10 -15 -10 -8 0 -15 -4 -15 -8 0 -5 -12 -15 -27 -23 -26 -13 -51
-31 -77 -54 -6 -6 -33 -26 -61 -45 -27 -19 -51 -37 -53 -42 -2 -4 -10 -8 -18
-8 -8 0 -14 -4 -14 -10 0 -5 -5 -10 -10 -10 -6 0 -24 -13 -42 -30 -17 -16 -37
-30 -45 -30 -8 0 -11 -4 -8 -10 3 -5 0 -10 -7 -10 -7 0 -29 -15 -49 -33 -44
-38 -57 -49 -134 -107 -32 -25 -72 -57 -89 -72 -17 -16 -34 -28 -39 -28 -4 0
-5 -4 -2 -10 3 -5 -1 -10 -9 -10 -9 0 -16 -4 -16 -8 0 -5 -11 -15 -25 -22 -13
-7 -22 -17 -19 -22 3 -4 0 -8 -5 -8 -11 0 -44 -27 -107 -87 -18 -18 -36 -33
-39 -33 -3 0 -29 -24 -59 -52 -126 -124 -218 -208 -228 -208 -6 0 -9 -2 -6 -5
3 -3 -55 -67 -129 -142 -73 -76 -133 -141 -133 -145 0 -4 -8 -8 -17 -8 -9 0
-14 -3 -10 -6 3 -3 -13 -25 -36 -49 -44 -46 -71 -77 -141 -159 -22 -27 -48
-56 -57 -65 -21 -20 -125 -145 -159 -191 -14 -18 -36 -45 -50 -59 -14 -14 -23
-27 -21 -29 1 -2 -5 -14 -15 -25 -11 -12 -35 -42 -54 -67 -19 -25 -37 -47 -40
-50 -3 -3 -17 -21 -30 -40 -14 -19 -32 -44 -42 -54 -10 -11 -18 -25 -18 -32 0
-7 -3 -14 -7 -16 -5 -2 -19 -18 -32 -37 -13 -19 -52 -73 -86 -120 -33 -47 -88
-129 -120 -181 -33 -52 -64 -98 -70 -102 -6 -5 -7 -8 0 -8 6 0 2 -5 -7 -11
-10 -5 -18 -14 -18 -19 0 -5 -18 -36 -40 -69 -22 -33 -40 -65 -40 -71 0 -5 -4
-10 -9 -10 -5 0 -12 -11 -15 -25 -4 -14 -11 -25 -17 -25 -6 0 -7 -4 -4 -10 3
-5 1 -10 -5 -10 -6 0 -8 -4 -5 -10 3 -5 2 -10 -4 -10 -5 0 -13 -10 -16 -22 -4
-13 -17 -33 -28 -45 -11 -13 -17 -23 -12 -23 4 0 1 -8 -8 -18 -10 -10 -14 -22
-10 -25 3 -4 2 -7 -4 -7 -5 0 -18 -18 -28 -40 -10 -22 -22 -40 -27 -40 -5 0
-7 -4 -3 -9 3 -5 -2 -16 -10 -25 -9 -8 -15 -17 -14 -18 1 -4 -25 -62 -31 -68
-12 -11 -190 -372 -190 -385 0 -8 -4 -15 -8 -15 -5 0 -9 -6 -9 -12 0 -7 -21
-57 -47 -111 -25 -54 -46 -99 -46 -101 0 -2 -12 -30 -27 -62 -15 -33 -28 -64
-29 -71 -1 -7 -9 -27 -18 -44 -9 -18 -16 -40 -16 -51 0 -10 -3 -18 -8 -18 -4
0 -12 -17 -19 -37 -6 -21 -20 -56 -29 -78 -10 -22 -19 -44 -20 -50 -2 -5 -22
-62 -44 -125 -23 -63 -43 -122 -45 -130 -2 -8 -11 -35 -20 -60 -9 -25 -18 -52
-20 -60 -3 -13 -26 -83 -43 -130 -3 -8 -6 -19 -7 -25 -1 -5 -7 -26 -13 -46 -7
-20 -14 -45 -16 -55 -2 -10 -14 -53 -26 -94 -11 -41 -23 -84 -25 -95 -3 -11
-9 -31 -14 -45 -6 -14 -12 -38 -15 -55 -3 -16 -10 -50 -16 -75 -6 -25 -13 -56
-16 -70 -3 -14 -14 -59 -24 -100 -10 -41 -21 -87 -24 -103 -3 -15 -7 -35 -10
-45 -3 -9 -7 -33 -10 -52 -3 -19 -10 -60 -16 -90 -6 -30 -13 -71 -16 -90 -3
-19 -12 -67 -19 -106 -8 -39 -17 -95 -20 -125 -3 -30 -8 -67 -10 -84 -7 -43
-17 -117 -20 -140 -1 -11 -3 -20 -4 -20 -1 0 -4 -29 -7 -65 -2 -36 -6 -74 -9
-85 -2 -12 -7 -64 -10 -115 -3 -52 -8 -108 -10 -125 -2 -16 -7 -73 -11 -125
-3 -52 -10 -96 -15 -98 -12 -5 -12 -939 1 -944 5 -1 12 -41 15 -88 2 -47 7
-107 10 -135 3 -27 8 -86 10 -130 3 -44 7 -98 10 -120 12 -89 25 -192 30 -230
2 -22 7 -60 10 -85 4 -25 8 -61 11 -80 2 -19 6 -46 9 -60 10 -49 15 -76 30
-170 9 -52 20 -115 25 -140 5 -25 12 -56 14 -70 2 -14 12 -56 21 -95 9 -38 18
-77 20 -86 4 -18 28 -120 50 -211 24 -99 52 -200 64 -230 6 -16 9 -28 6 -28
-2 0 2 -18 10 -40 8 -22 12 -40 10 -40 -2 0 3 -17 12 -38 8 -20 15 -38 14 -39
-1 -4 5 -26 23 -78 10 -27 19 -58 21 -68 2 -9 7 -22 10 -27 3 -5 8 -18 10 -27
4 -18 61 -192 75 -228 5 -11 36 -92 70 -180 34 -88 68 -174 76 -192 8 -17 14
-35 14 -40 0 -4 10 -26 21 -48 12 -22 22 -42 22 -45 0 -3 13 -34 29 -70 88
-197 237 -500 256 -523 8 -9 12 -17 8 -17 -4 0 1 -12 11 -28 10 -15 25 -40 33
-57 8 -16 33 -62 56 -102 23 -39 40 -74 36 -77 -3 -3 -1 -6 4 -6 6 0 21 -22
35 -50 13 -27 28 -50 32 -50 5 0 5 -4 2 -10 -3 -5 -2 -10 4 -10 5 0 13 -10 17
-22 4 -13 24 -49 45 -80 22 -31 39 -61 39 -67 0 -5 4 -11 8 -13 4 -1 43 -59
87 -128 44 -69 107 -164 141 -211 33 -47 72 -101 85 -120 13 -19 27 -35 32
-37 4 -2 7 -10 7 -17 0 -8 8 -19 18 -24 9 -6 13 -11 9 -11 -5 0 -2 -6 5 -14 7
-7 20 -24 28 -36 8 -12 20 -28 25 -34 6 -6 26 -31 45 -56 19 -25 37 -47 40
-50 3 -3 17 -21 30 -40 13 -19 27 -37 30 -40 3 -3 21 -25 40 -50 19 -25 37
-47 40 -50 3 -3 16 -18 29 -35 12 -16 48 -59 79 -94 32 -36 66 -75 77 -88 87
-104 233 -259 401 -427 179 -180 362 -356 370 -356 3 0 15 -10 28 -22 13 -13
47 -43 76 -68 29 -25 74 -64 100 -88 26 -23 61 -52 76 -64 16 -13 31 -26 32
-30 2 -5 9 -8 16 -8 6 0 18 -9 26 -20 8 -11 20 -20 27 -20 7 0 13 -4 13 -8 0
-4 12 -15 28 -25 15 -9 41 -29 59 -44 51 -45 73 -63 78 -63 3 0 14 -8 24 -18
32 -28 50 -42 55 -42 6 0 37 -24 61 -47 8 -7 18 -13 24 -13 6 0 11 -4 11 -10
0 -5 5 -10 11 -10 11 0 92 -60 97 -72 2 -5 10 -8 18 -8 8 0 14 -4 14 -10 0 -5
7 -10 15 -10 8 0 15 -4 15 -10 0 -5 5 -10 10 -10 6 0 20 -9 32 -20 12 -11 28
-20 35 -20 8 0 11 -4 8 -10 -3 -5 3 -10 14 -10 12 0 21 -4 21 -10 0 -5 6 -10
13 -10 8 0 22 -9 32 -20 10 -11 23 -20 30 -20 6 0 20 -8 31 -18 10 -10 34 -25
52 -32 17 -8 32 -18 32 -22 0 -5 6 -8 14 -8 8 0 16 -4 18 -9 4 -11 135 -91
148 -91 6 0 10 -4 10 -10 0 -5 9 -10 20 -10 11 0 20 -4 20 -10 0 -5 4 -10 9
-10 5 0 38 -17 72 -38 35 -21 84 -49 109 -63 25 -13 47 -27 50 -30 3 -3 21
-11 40 -19 19 -8 37 -16 40 -19 10 -12 50 -31 64 -31 8 0 16 -4 18 -8 2 -5 89
-50 193 -101 105 -51 198 -97 207 -102 10 -5 25 -9 33 -9 8 0 15 -4 15 -10 0
-5 6 -10 14 -10 8 0 31 -9 53 -20 49 -24 106 -49 213 -89 47 -18 93 -37 102
-42 10 -5 25 -9 33 -9 8 0 15 -4 15 -8 0 -4 21 -14 48 -21 26 -8 54 -18 62
-22 40 -19 125 -49 141 -49 11 0 19 -5 19 -12 0 -6 3 -9 6 -5 4 3 22 0 41 -8
20 -8 42 -15 49 -15 8 0 33 -8 57 -19 47 -21 130 -47 292 -92 61 -17 117 -33
125 -35 8 -3 16 -5 17 -5 2 0 17 -5 35 -10 18 -6 44 -12 57 -15 14 -3 29 -8
35 -11 6 -4 26 -8 45 -10 18 -2 42 -8 52 -14 11 -5 19 -7 19 -5 0 3 12 1 28
-5 15 -6 47 -13 72 -16 25 -3 49 -9 54 -14 6 -5 20 -9 33 -9 12 0 48 -7 80
-15 32 -9 74 -18 93 -21 46 -7 270 -47 335 -59 6 -1 33 -5 60 -9 79 -10 117
-16 155 -22 19 -3 60 -8 90 -10 30 -3 61 -7 68 -9 8 -3 48 -7 90 -10 43 -3 86
-8 98 -10 12 -3 75 -7 140 -11 65 -3 126 -8 134 -11 19 -6 382 -18 575 -18
180 0 583 13 593 19 4 2 57 7 117 10 61 3 130 9 154 12 25 4 63 8 85 9 23 1
52 4 66 8 14 3 50 9 80 12 30 3 71 8 90 10 19 3 55 7 80 10 56 6 102 14 160
25 25 5 63 11 85 14 22 3 52 9 67 15 14 5 28 7 31 4 3 -3 21 0 39 5 18 6 53
13 78 16 25 3 81 14 125 25 44 11 83 17 87 15 5 -3 8 0 8 5 0 6 11 11 24 11
12 0 36 4 52 10 16 5 43 11 59 14 17 2 55 12 87 20 31 8 67 18 80 20 30 7 84
22 126 35 18 5 36 11 40 12 4 1 12 3 17 4 6 2 42 13 82 25 40 11 85 23 99 26
15 3 34 9 43 13 9 5 18 9 21 9 7 1 40 12 65 22 38 15 110 35 118 32 4 -1 7 2
7 6 0 5 25 15 55 22 31 7 58 17 61 22 3 4 16 8 29 8 13 0 26 4 29 9 4 5 29 15
56 22 28 7 50 16 50 21 0 4 6 8 14 8 7 0 46 13 85 30 40 16 80 31 89 32 9 2
19 6 22 9 8 9 124 54 133 51 4 -1 7 3 7 8 0 6 5 10 10 10 6 0 50 19 98 41 48
23 93 42 100 42 6 0 12 4 12 9 0 4 6 8 13 8 6 0 39 14 72 30 33 17 65 30 71
30 7 0 14 3 16 8 4 10 140 78 150 75 4 -2 8 1 8 5 0 5 16 14 35 22 19 8 35 16
35 20 0 3 17 12 38 19 20 8 39 17 42 20 3 3 25 17 50 30 98 51 125 66 130 71
3 3 16 11 29 18 13 8 40 23 60 35 20 11 54 29 75 40 21 10 44 23 50 28 6 5 67
45 136 89 69 44 130 84 137 90 7 5 17 10 23 10 5 0 10 5 10 10 0 6 6 10 13 10
7 0 23 9 35 20 12 11 28 20 37 20 9 0 13 4 10 10 -3 6 1 10 9 10 9 0 16 5 16
10 0 6 7 10 15 10 8 0 15 3 15 8 0 4 18 18 40 32 22 14 40 28 40 32 0 5 7 8
15 8 8 0 15 5 15 10 0 6 7 10 15 10 8 0 15 5 15 10 0 6 6 10 13 10 7 0 19 9
27 20 8 11 18 20 23 20 7 0 152 107 183 135 6 6 26 21 44 35 18 14 39 31 46
37 7 7 15 13 18 13 6 0 50 37 82 67 7 7 16 13 21 13 4 0 19 14 33 30 14 17 28
30 33 30 4 0 23 15 41 33 47 44 96 87 100 87 21 0 496 463 683 666 81 88 93
101 156 177 29 34 89 101 147 165 11 12 18 22 14 22 -4 0 2 8 12 17 11 10 35
38 54 63 19 25 39 50 45 56 5 6 17 22 25 34 8 13 25 33 38 46 13 13 20 24 18
24 -6 0 26 40 61 77 12 13 20 23 17 23 -2 0 17 29 43 64 26 36 64 88 83 116
19 28 40 56 45 63 6 7 31 41 55 77 25 36 48 67 53 68 4 2 7 8 7 13 0 5 11 26
24 47 12 20 24 40 25 44 0 5 11 19 22 32 12 13 20 27 19 31 -1 4 2 11 7 14 5
3 22 27 38 53 17 27 33 48 38 48 4 0 7 5 7 10 0 6 50 96 110 201 61 105 110
194 110 200 0 5 5 9 11 9 5 0 7 5 4 10 -3 6 -1 10 6 10 7 0 9 3 6 7 -4 3 0 15
10 25 9 10 13 18 8 18 -4 0 -2 6 4 14 18 21 185 355 205 409 10 26 23 53 29
60 7 7 13 19 15 27 2 8 15 40 30 70 14 30 27 60 28 65 1 6 19 48 39 95 20 47
38 92 40 100 2 8 11 33 21 55 10 22 18 42 19 45 1 10 67 175 76 192 5 10 9 27
9 38 0 11 4 20 9 20 6 0 9 8 9 18 -1 9 14 58 32 107 18 50 33 96 33 103 0 6 4
12 9 12 4 0 7 3 6 8 -2 4 5 32 14 62 34 110 130 455 131 473 1 9 4 17 8 17 4
0 6 8 5 18 -2 9 1 31 6 47 5 17 11 41 14 55 3 14 17 72 30 130 14 58 27 115
30 128 2 12 6 34 9 50 6 27 19 104 30 172 3 19 8 46 11 60 10 44 25 134 30
175 2 22 6 54 9 70 3 17 8 53 10 80 3 28 8 66 11 85 3 19 7 58 10 85 3 28 7
61 10 75 3 14 7 61 9 105 3 44 7 100 10 125 2 25 8 81 12 125 10 101 10 1044
1 1145 -4 41 -10 98 -12 125 -3 28 -8 84 -11 125 -2 41 -7 93 -10 115 -3 22
-7 63 -10 90 -2 28 -4 50 -5 50 -3 0 -8 31 -14 90 -3 33 -8 74 -10 90 -3 17
-7 48 -10 70 -3 22 -8 54 -11 70 -4 17 -8 44 -11 60 -2 17 -9 55 -14 85 -6 30
-15 80 -20 110 -5 30 -11 65 -14 76 -2 12 -7 39 -10 60 -4 22 -13 62 -21 89
-8 28 -16 64 -19 80 -3 17 -10 45 -15 63 -5 18 -10 35 -10 37 0 3 -3 15 -6 28
-3 12 -7 33 -10 47 -2 14 -9 42 -14 63 -5 20 -7 37 -4 37 3 0 1 6 -4 13 -6 6
-16 35 -22 62 -7 28 -15 57 -18 65 -4 8 -7 20 -9 25 -1 6 -16 62 -34 125 -18
63 -33 120 -35 125 -1 6 -5 17 -8 25 -14 31 -78 226 -83 249 -3 13 -12 37 -20
53 -8 16 -12 33 -9 38 3 6 3 10 -2 10 -7 0 -18 27 -37 85 -2 6 -8 21 -14 35
-5 14 -35 88 -65 165 -30 77 -66 165 -79 195 -35 77 -41 94 -40 103 1 4 -2 7
-6 7 -9 0 -37 64 -33 76 2 4 -2 10 -7 13 -5 3 -25 43 -45 89 -20 46 -57 121
-82 167 -25 47 -46 88 -46 92 0 5 -8 16 -16 26 -9 9 -13 17 -10 17 3 0 -10 28
-30 63 -20 34 -36 68 -36 75 0 6 -4 12 -9 12 -5 0 -7 4 -4 9 4 5 2 11 -2 13
-5 1 -25 32 -46 68 -20 36 -50 88 -66 115 -17 28 -44 75 -60 105 -17 30 -43
74 -58 97 -27 42 -72 113 -158 248 -60 96 -71 111 -114 162 -5 7 -10 15 -10
19 0 3 -10 19 -22 34 -13 15 -30 37 -38 50 -8 12 -21 29 -28 36 -7 8 -10 14
-5 14 4 0 3 4 -2 8 -15 10 -78 92 -71 92 3 0 -5 11 -17 23 -12 13 -32 37 -44
53 -12 16 -30 39 -40 51 -10 11 -25 31 -33 43 -8 12 -20 28 -25 34 -6 6 -26
31 -45 56 -19 25 -42 52 -52 61 -10 9 -18 20 -18 25 0 5 -8 16 -17 25 -10 8
-38 39 -63 69 -25 29 -59 68 -77 87 -17 18 -30 33 -28 33 6 0 -71 85 -142 157
-34 35 -59 63 -57 63 7 0 -347 350 -442 437 -107 98 -127 116 -189 168 -26 22
-63 55 -81 73 -18 17 -36 32 -39 32 -2 0 -18 14 -33 30 -16 17 -34 30 -40 30
-6 0 -12 4 -14 8 -2 5 -34 33 -73 63 -78 60 -102 79 -119 94 -6 6 -38 30 -71
55 -33 25 -61 48 -63 53 -2 4 -10 7 -18 7 -8 0 -14 3 -14 8 0 4 -18 18 -40 32
-22 14 -40 28 -40 32 0 5 -7 8 -15 8 -8 0 -15 5 -15 10 0 6 -7 10 -15 10 -8 0
-15 3 -15 8 0 4 -25 23 -55 42 -30 19 -55 38 -55 43 0 4 -5 7 -10 7 -6 0 -20
9 -32 20 -12 11 -28 20 -35 20 -7 0 -13 5 -13 10 0 6 -7 10 -15 10 -8 0 -15 5
-15 10 0 6 -7 10 -15 10 -8 0 -15 3 -15 8 0 4 -13 13 -28 20 -16 6 -37 20 -48
30 -19 16 -39 29 -89 56 -11 6 -22 13 -25 16 -11 12 -92 63 -130 82 -14 7 -27
15 -30 18 -3 3 -21 13 -40 22 -38 19 -92 50 -100 58 -3 3 -26 16 -52 29 -27
13 -48 28 -48 33 0 4 -3 7 -7 6 -8 -2 -143 62 -153 72 -3 3 -63 34 -135 70
-71 36 -131 68 -133 73 -2 4 -9 7 -15 7 -10 0 -23 6 -160 69 -37 17 -75 31
-83 31 -8 0 -12 5 -9 10 3 6 -1 10 -10 10 -9 0 -44 13 -78 29 -34 16 -82 36
-107 46 -25 9 -56 22 -70 28 -14 6 -27 11 -30 12 -3 1 -16 6 -30 12 -14 6 -43
16 -65 24 -22 7 -44 17 -50 21 -5 4 -17 8 -27 8 -10 0 -18 4 -18 10 0 5 -3 9
-7 8 -8 -2 -72 17 -108 32 -40 16 -60 23 -85 27 -13 2 -29 8 -35 12 -5 4 -30
13 -55 20 -25 7 -54 17 -65 21 -56 23 -163 55 -200 61 -5 1 -21 6 -35 11 -22
9 -134 41 -181 52 -29 7 -104 28 -119 34 -8 3 -26 7 -40 9 -14 2 -32 6 -40 10
-8 3 -30 8 -49 10 -19 2 -42 8 -52 13 -10 6 -31 10 -47 10 -16 0 -32 3 -36 7
-3 4 -14 8 -24 10 -10 1 -47 9 -82 18 -36 9 -85 18 -110 21 -25 2 -52 7 -60
10 -8 3 -33 8 -55 11 -22 3 -45 9 -51 14 -6 5 -13 7 -16 4 -4 -4 -68 5 -133
18 -30 7 -116 19 -155 23 -46 4 -198 24 -230 30 -14 2 -54 7 -90 9 -36 3 -72
7 -80 10 -8 2 -69 7 -135 10 -66 4 -121 11 -123 16 -5 12 -1169 12 -1174 0z
m1041 -247 c80 -3 147 -7 151 -9 3 -2 62 -7 131 -10 68 -4 126 -9 129 -10 3
-2 37 -6 75 -10 39 -3 77 -8 85 -11 8 -2 42 -6 75 -9 33 -3 74 -8 90 -12 31
-7 64 -10 123 -12 18 -1 31 -5 28 -9 -2 -4 8 -7 22 -6 15 0 43 -3 62 -7 19 -5
62 -13 95 -19 33 -5 69 -12 80 -14 39 -7 100 -18 125 -22 14 -3 33 -7 42 -10
9 -3 27 -7 40 -9 13 -2 41 -9 63 -14 22 -6 99 -24 170 -41 122 -28 176 -42
235 -60 14 -4 43 -13 65 -19 22 -6 81 -23 130 -37 50 -14 102 -29 118 -31 15
-3 27 -10 27 -16 0 -6 3 -8 6 -5 5 6 74 -13 119 -32 11 -5 56 -21 100 -36 44
-15 91 -32 105 -37 14 -6 30 -11 35 -13 14 -3 145 -53 180 -69 17 -7 68 -28
115 -46 47 -19 87 -36 90 -39 3 -3 12 -6 20 -8 8 -1 33 -11 55 -21 22 -11 79
-37 128 -60 48 -23 94 -41 102 -41 8 0 15 -4 15 -10 0 -5 5 -10 10 -10 15 0
105 -43 108 -52 2 -4 12 -8 22 -8 10 0 20 -3 22 -7 2 -5 59 -37 128 -71 143
-73 203 -105 210 -112 3 -3 16 -11 30 -18 14 -6 32 -16 40 -22 38 -25 193
-110 201 -110 5 0 9 -4 9 -10 0 -5 7 -10 15 -10 8 0 15 -4 15 -10 0 -5 7 -10
15 -10 8 0 15 -4 15 -10 0 -5 5 -10 11 -10 5 0 37 -18 69 -40 32 -22 64 -40
70 -40 6 0 8 -4 5 -10 -3 -5 3 -10 14 -10 12 0 21 -4 21 -10 0 -5 7 -10 15
-10 8 0 15 -4 15 -9 0 -5 14 -14 30 -21 17 -7 30 -16 30 -21 0 -5 6 -9 14 -9
8 0 16 -4 18 -8 2 -5 32 -28 68 -52 36 -24 71 -49 78 -56 6 -7 21 -16 32 -19
11 -3 20 -11 20 -16 0 -5 5 -9 11 -9 6 0 16 -6 24 -12 25 -24 55 -48 61 -48 3
0 11 -6 19 -12 27 -27 56 -48 63 -48 4 0 14 -9 22 -20 8 -11 20 -20 27 -20 7
0 13 -4 13 -8 0 -5 18 -21 40 -38 42 -30 64 -47 99 -76 12 -10 23 -18 26 -18
5 0 25 -17 89 -75 13 -11 49 -42 81 -70 32 -27 68 -60 81 -72 13 -13 26 -23
29 -23 3 0 16 -10 29 -22 13 -13 44 -42 69 -65 25 -22 43 -44 40 -47 -4 -3 -1
-6 5 -6 6 0 53 -39 103 -87 132 -126 159 -153 309 -313 74 -79 145 -154 158
-167 13 -12 20 -23 17 -23 -4 0 9 -16 29 -35 20 -19 36 -38 36 -41 0 -4 8 -14
18 -23 9 -9 42 -45 72 -81 30 -36 57 -67 60 -70 3 -3 30 -36 60 -75 29 -38 57
-71 62 -73 4 -2 8 -10 8 -18 0 -8 4 -14 8 -14 4 0 15 -12 25 -27 9 -16 30 -44
47 -63 17 -19 39 -47 48 -62 9 -15 20 -28 25 -28 4 0 5 -4 2 -10 -3 -5 -3 -10
2 -10 4 0 19 -17 33 -38 14 -20 27 -39 30 -42 11 -11 61 -85 177 -260 67 -102
127 -191 133 -197 6 -7 7 -13 3 -13 -4 0 -3 -4 3 -8 12 -8 93 -144 192 -322
13 -25 28 -49 32 -55 4 -5 47 -86 95 -180 48 -93 91 -174 96 -180 5 -5 9 -17
9 -26 0 -10 3 -19 8 -21 9 -4 94 -188 95 -205 0 -7 4 -13 8 -13 7 0 22 -39 20
-52 -1 -5 4 -8 11 -8 6 0 8 -3 5 -7 -4 -3 -1 -16 6 -27 8 -12 40 -86 71 -166
32 -80 63 -158 71 -175 7 -16 11 -33 9 -37 -3 -4 0 -8 7 -8 7 0 9 -3 6 -6 -4
-4 0 -19 7 -33 14 -24 45 -105 46 -116 1 -6 9 -33 21 -65 5 -14 11 -34 14 -45
2 -11 18 -58 35 -105 17 -47 33 -89 34 -95 1 -5 9 -30 16 -55 7 -25 15 -49 16
-55 1 -5 9 -32 17 -60 46 -163 61 -214 81 -295 3 -8 9 -37 16 -65 12 -55 32
-140 55 -238 16 -66 42 -202 75 -392 22 -127 24 -138 45 -306 8 -69 17 -135
19 -146 3 -11 7 -58 10 -104 4 -46 8 -95 11 -109 2 -14 7 -79 11 -145 3 -66 8
-129 10 -140 3 -11 6 -177 8 -370 2 -321 -4 -569 -18 -735 -8 -95 -17 -206
-21 -261 -2 -26 -8 -80 -14 -121 -5 -40 -12 -92 -15 -116 -25 -203 -30 -236
-46 -312 -8 -43 -17 -90 -27 -155 -4 -28 -43 -214 -64 -310 -17 -78 -79 -331
-94 -385 -9 -30 -18 -62 -20 -70 -2 -8 -11 -40 -20 -70 -18 -62 -17 -59 -34
-120 -19 -68 -53 -163 -64 -177 -5 -7 -7 -13 -4 -13 3 0 -7 -36 -23 -79 -15
-44 -26 -82 -22 -85 3 -3 -1 -6 -8 -6 -7 0 -10 -3 -7 -6 3 -4 2 -15 -4 -26 -6
-11 -12 -27 -14 -36 -5 -24 -29 -86 -35 -92 -3 -3 -6 -12 -8 -20 -1 -8 -6 -24
-11 -35 -5 -11 -16 -37 -26 -58 -9 -21 -18 -47 -20 -59 -3 -12 -10 -25 -16
-28 -6 -4 -10 -10 -9 -14 3 -9 -14 -54 -50 -136 -16 -36 -35 -80 -42 -97 -7
-18 -16 -33 -20 -33 -5 0 -7 -3 -6 -7 2 -5 -10 -37 -27 -73 -16 -36 -30 -67
-31 -70 -9 -29 -30 -70 -37 -70 -4 0 -5 -4 -2 -10 3 -5 1 -10 -6 -10 -7 0 -10
-3 -6 -6 3 -3 -4 -22 -15 -42 -11 -21 -57 -107 -101 -192 -44 -85 -83 -157
-86 -160 -3 -3 -17 -25 -30 -50 -14 -25 -29 -48 -35 -52 -6 -4 -7 -8 -3 -8 7
0 -20 -57 -33 -70 -3 -3 -11 -15 -17 -27 -7 -13 -19 -33 -25 -45 -7 -13 -16
-25 -19 -28 -3 -3 -13 -19 -22 -36 -9 -17 -33 -58 -55 -90 -21 -32 -61 -94
-88 -137 -47 -74 -111 -168 -134 -194 -6 -7 -8 -13 -5 -13 3 0 1 -6 -5 -12 -5
-7 -24 -29 -40 -48 -16 -19 -30 -41 -30 -48 0 -7 -7 -15 -15 -18 -8 -3 -17
-14 -20 -25 -4 -10 -12 -25 -18 -31 -7 -7 -24 -29 -37 -48 -21 -29 -54 -72
-163 -210 -7 -8 -28 -35 -47 -60 -19 -25 -47 -57 -62 -73 -15 -15 -25 -27 -23
-27 6 0 -1 -8 -75 -88 -22 -24 -57 -65 -77 -90 -21 -26 -47 -56 -58 -68 -11
-11 -76 -81 -145 -154 -159 -170 -200 -210 -213 -210 -6 0 -8 -3 -5 -6 3 -3
-17 -26 -45 -52 -28 -26 -74 -69 -102 -97 -70 -68 -175 -163 -221 -202 -22
-17 -48 -39 -60 -50 -12 -10 -45 -38 -74 -63 -29 -25 -63 -55 -76 -67 -13 -13
-26 -23 -29 -23 -3 0 -16 -9 -28 -21 -12 -12 -33 -28 -47 -37 -39 -26 -135
-104 -138 -113 -2 -5 -8 -9 -14 -9 -5 0 -15 -6 -23 -12 -30 -29 -56 -48 -65
-48 -6 0 -10 -3 -10 -8 0 -4 -18 -18 -40 -32 -22 -14 -40 -28 -40 -32 0 -5 -7
-8 -15 -8 -8 0 -15 -4 -15 -10 0 -5 -6 -10 -14 -10 -8 0 -16 -3 -18 -7 -2 -5
-32 -28 -68 -53 -36 -24 -66 -48 -68 -52 -2 -4 -10 -8 -18 -8 -8 0 -14 -4 -14
-10 0 -5 -7 -10 -15 -10 -8 0 -15 -4 -15 -9 0 -5 -13 -14 -30 -21 -16 -7 -30
-16 -30 -21 0 -5 -7 -9 -15 -9 -8 0 -15 -3 -15 -8 0 -4 -15 -13 -32 -21 -18
-8 -35 -17 -38 -21 -10 -13 -99 -70 -109 -70 -6 0 -11 -4 -11 -10 0 -5 -7 -10
-15 -10 -8 0 -15 -3 -15 -8 0 -4 -17 -15 -37 -24 -38 -17 -94 -49 -103 -58 -3
-3 -23 -14 -45 -26 -52 -27 -89 -48 -95 -54 -7 -7 -74 -43 -215 -114 -66 -33
-122 -63 -125 -67 -3 -3 -22 -12 -42 -20 -21 -7 -38 -17 -38 -21 0 -4 -4 -8
-10 -8 -5 0 -40 -14 -77 -31 -37 -17 -93 -43 -123 -56 -30 -14 -71 -33 -92
-43 -20 -10 -39 -16 -42 -13 -3 4 -6 1 -6 -5 0 -7 -7 -12 -15 -12 -8 0 -23 -4
-33 -9 -42 -23 -113 -51 -127 -51 -8 0 -15 -4 -15 -10 0 -5 -10 -10 -23 -10
-13 0 -27 -4 -33 -9 -5 -5 -18 -11 -29 -13 -11 -1 -23 -7 -26 -11 -3 -4 -16
-9 -27 -10 -12 -1 -22 -5 -22 -9 0 -4 -7 -8 -15 -8 -8 0 -23 -4 -33 -10 -25
-13 -186 -70 -200 -70 -7 0 -21 -4 -32 -10 -11 -5 -29 -14 -40 -20 -11 -5 -27
-10 -35 -10 -8 0 -34 -9 -58 -20 -23 -10 -53 -21 -67 -23 -14 -2 -32 -7 -40
-10 -29 -11 -94 -30 -110 -32 -8 -1 -22 -4 -30 -7 -8 -3 -35 -11 -60 -18 -25
-7 -56 -16 -70 -21 -14 -4 -83 -22 -155 -39 -71 -17 -146 -35 -165 -40 -92
-24 -215 -51 -320 -69 -63 -12 -141 -26 -174 -33 -32 -6 -68 -12 -80 -12 -11
-1 -25 -4 -31 -8 -5 -3 -44 -9 -84 -12 -41 -4 -77 -9 -80 -11 -4 -1 -39 -6
-80 -9 -40 -4 -77 -8 -80 -10 -4 -3 -39 -7 -80 -10 -40 -3 -76 -8 -79 -10 -4
-2 -63 -7 -131 -10 -68 -4 -127 -9 -132 -12 -10 -6 -427 -19 -624 -19 -193 0
-614 13 -624 19 -4 3 -64 8 -132 12 -68 3 -128 8 -133 11 -5 3 -43 8 -85 11
-42 2 -78 7 -81 11 -3 3 -18 6 -35 6 -16 -1 -55 3 -85 7 -30 5 -77 11 -105 14
-27 3 -56 7 -63 9 -7 3 -34 7 -60 10 -26 4 -60 10 -77 15 -27 7 -54 12 -150
26 -16 3 -41 7 -55 10 -14 3 -38 8 -55 11 -16 3 -35 9 -41 14 -6 5 -13 7 -15
4 -3 -2 -22 0 -44 6 -64 15 -128 29 -160 35 -16 3 -37 8 -45 11 -8 3 -22 7
-30 9 -58 10 -127 29 -134 36 -6 4 -22 8 -36 8 -15 0 -30 3 -34 7 -3 4 -14 8
-24 9 -21 3 -89 23 -120 35 -13 5 -32 9 -43 9 -10 0 -27 4 -37 9 -9 5 -91 33
-182 62 -91 29 -169 55 -175 59 -5 4 -30 12 -55 19 -46 12 -53 15 -132 50 -26
12 -52 21 -58 21 -6 0 -29 9 -53 19 -23 10 -82 35 -132 54 -49 19 -119 49
-155 65 -36 16 -87 40 -115 52 -27 12 -74 33 -103 46 -29 13 -57 24 -62 24 -6
0 -10 5 -10 10 0 6 -6 10 -12 10 -16 0 -102 42 -106 53 -2 4 -12 7 -22 7 -10
0 -20 3 -22 8 -1 4 -60 36 -130 71 -71 35 -128 68 -128 73 0 4 -9 8 -20 8 -11
0 -20 3 -20 8 0 4 -23 18 -50 31 -28 14 -50 29 -50 33 0 4 -9 8 -19 8 -11 0
-21 3 -23 8 -1 4 -24 18 -51 31 -26 13 -47 28 -47 33 0 4 -9 8 -20 8 -11 0
-20 5 -20 10 0 6 -7 10 -15 10 -8 0 -15 5 -15 10 0 6 -7 10 -15 10 -8 0 -15 5
-15 10 0 6 -6 10 -13 10 -7 0 -22 8 -33 18 -11 9 -30 23 -42 30 -12 6 -32 18
-44 25 -12 6 -31 20 -42 30 -11 9 -26 17 -33 17 -7 0 -13 5 -13 10 0 6 -7 10
-15 10 -8 0 -15 5 -15 10 0 6 -7 10 -15 10 -8 0 -15 5 -15 10 0 6 -7 10 -15
10 -8 0 -15 5 -15 10 0 6 -7 10 -15 10 -8 0 -15 5 -15 10 0 6 -7 10 -16 10 -8
0 -13 4 -10 8 2 4 -8 13 -23 20 -15 7 -37 21 -49 32 -12 11 -25 20 -30 20 -5
0 -17 9 -27 20 -10 11 -24 20 -32 20 -8 0 -11 5 -8 10 3 6 1 10 -6 10 -11 0
-179 121 -215 155 -6 5 -26 21 -44 35 -18 14 -40 32 -50 40 -10 8 -32 26 -50
40 -18 14 -41 32 -50 40 -10 8 -37 31 -60 50 -24 19 -53 45 -66 58 -13 12 -28
22 -34 22 -6 0 -8 5 -5 10 3 6 2 10 -3 10 -5 0 -23 13 -40 30 -18 16 -35 30
-38 30 -3 0 -19 14 -34 30 -15 17 -33 30 -40 30 -6 0 -8 5 -5 10 3 5 2 10 -3
10 -5 0 -60 49 -122 110 -62 60 -115 110 -117 110 -1 0 -40 39 -85 86 -46 48
-122 126 -169 175 -47 49 -84 89 -81 89 3 0 -4 8 -15 18 -11 9 -48 51 -84 92
-35 41 -68 80 -74 86 -54 59 -73 83 -68 88 4 3 2 6 -4 6 -7 0 -63 63 -126 145
-4 6 -29 37 -55 70 -26 34 -58 76 -72 94 -14 18 -31 39 -38 47 -7 8 -10 14 -5
14 4 0 -3 7 -15 16 -12 8 -20 19 -17 24 3 4 1 10 -3 12 -8 3 -105 136 -167
228 -16 25 -32 47 -35 50 -3 3 -20 28 -38 55 -17 28 -36 55 -42 62 -5 7 -10
15 -10 17 0 3 -33 56 -73 118 -40 62 -87 138 -104 168 -17 30 -66 118 -110
195 -43 77 -87 158 -97 180 -10 22 -25 48 -34 58 -8 9 -12 17 -8 17 4 0 -2 13
-13 29 -11 15 -18 31 -14 35 3 3 2 6 -4 6 -6 0 -13 10 -17 22 -3 13 -5 23 -5
23 1 0 -12 23 -28 50 -16 28 -35 66 -43 85 -7 19 -26 61 -42 93 -15 31 -25 57
-21 57 5 0 3 4 -2 8 -10 6 -124 259 -130 286 -2 12 -14 41 -46 115 -11 27 -22
55 -23 62 -2 8 -8 25 -13 39 -10 22 -22 54 -49 125 -4 11 -8 25 -9 30 -2 6
-24 71 -49 145 -43 123 -130 410 -140 463 -3 12 -12 45 -20 72 -12 39 -75 300
-91 375 -12 58 -55 282 -60 315 -4 22 -13 72 -20 110 -8 39 -17 93 -20 120 -3
28 -8 66 -10 85 -35 261 -43 322 -50 430 -3 47 -7 110 -10 140 -2 30 -7 91
-10 135 -16 206 -10 883 9 1120 3 39 8 102 11 140 5 80 12 140 25 240 5 39 11
89 14 113 21 169 28 219 31 237 3 11 7 32 9 48 5 28 23 125 30 163 2 12 7 38
10 58 3 21 13 72 22 114 9 42 17 84 19 92 2 8 14 62 28 120 14 58 28 116 31
130 7 36 47 183 51 190 2 4 7 21 10 38 3 18 11 51 19 75 7 23 19 62 26 87 7
25 15 52 18 60 3 8 6 20 8 27 1 7 21 70 45 140 24 70 42 131 41 136 -1 4 2 7
6 7 5 0 9 6 10 13 1 18 7 39 21 72 7 17 14 35 15 40 2 16 33 95 60 157 9 20
16 38 16 41 0 2 7 21 15 41 8 20 16 39 16 43 1 5 10 25 20 46 11 20 17 37 14
37 -3 0 11 31 30 70 19 38 36 73 36 77 1 5 16 40 33 78 18 39 46 99 62 135 15
36 31 67 34 70 3 3 6 12 8 20 2 8 8 17 13 18 5 2 9 12 9 23 0 10 5 19 10 19 6
0 10 9 10 20 0 11 5 20 10 20 6 0 10 9 10 20 0 11 5 20 12 20 6 0 8 3 5 7 -4
3 -3 11 2 17 5 6 35 61 67 121 31 61 62 113 68 117 7 5 7 8 1 8 -7 0 -7 3 0 8
6 4 25 36 44 72 19 36 37 67 41 70 3 3 18 28 32 55 14 28 49 85 77 127 28 43
51 82 51 88 0 5 3 10 8 10 4 0 23 27 41 60 19 33 39 60 44 60 4 0 6 4 3 8 -3
5 6 20 20 35 14 15 22 27 19 27 -5 0 40 65 73 105 4 6 28 39 52 75 24 36 50
71 57 78 7 7 13 17 13 22 0 5 6 15 13 22 7 7 24 29 37 48 13 19 27 37 30 40 4
4 85 107 138 175 47 62 79 102 87 111 5 6 30 35 55 64 25 29 55 64 68 77 13
12 21 23 18 23 -2 0 10 15 28 34 17 19 51 57 76 85 25 28 93 101 153 163 59
61 107 115 107 120 0 4 8 8 17 8 9 0 14 3 10 6 -7 8 59 74 74 74 7 0 10 3 7 6
-3 3 24 33 60 67 64 59 190 178 238 225 13 12 26 22 29 22 4 0 12 6 19 13 7 6
43 39 81 72 37 33 76 68 86 78 11 9 21 17 24 17 2 0 15 10 27 23 13 12 39 33
57 47 19 14 41 32 51 40 10 8 32 26 50 40 18 14 39 31 46 38 7 6 15 12 18 12
7 0 39 26 72 58 13 12 28 22 34 22 5 0 10 5 10 10 0 6 7 10 15 10 8 0 15 3 15
8 0 4 18 18 40 32 22 14 40 28 40 32 0 5 7 8 15 8 8 0 15 5 15 10 0 6 7 10 15
10 8 0 15 4 15 8 0 5 12 15 28 23 15 8 37 24 50 37 13 12 27 22 31 22 4 0 21
11 37 25 16 14 33 25 37 25 4 0 13 5 20 10 7 6 35 25 62 42 28 18 76 49 108
70 32 21 63 38 68 38 5 0 9 4 9 9 0 5 14 14 30 21 17 7 30 16 30 19 0 4 16 13
35 21 19 8 35 17 35 22 0 4 9 8 20 8 11 0 20 5 20 10 0 6 7 10 15 10 8 0 15 3
15 8 0 4 10 12 23 17 31 15 111 59 117 65 3 3 19 12 35 20 17 8 32 17 35 20 3
3 64 34 135 70 72 36 132 67 135 70 6 6 62 32 70 32 3 0 17 9 32 19 14 10 31
19 36 19 6 0 27 9 49 19 45 22 131 62 188 86 22 9 49 22 60 27 41 22 51 27
110 48 73 27 87 32 147 59 26 12 53 21 60 22 7 0 35 11 63 24 27 13 53 21 57
19 5 -3 8 -1 8 3 0 5 21 14 48 22 26 7 56 17 67 22 11 5 30 11 42 14 12 2 37
10 55 18 52 22 161 57 180 57 9 0 18 4 20 10 2 5 18 10 36 12 17 1 32 6 32 10
0 4 11 8 25 8 13 0 34 4 47 9 13 5 43 14 68 21 25 7 56 16 70 21 14 5 34 10
45 12 11 2 27 7 35 10 8 4 26 9 40 11 14 3 42 10 63 15 20 5 37 6 37 3 0 -3 5
-1 12 6 7 7 24 12 40 12 15 0 37 4 50 9 21 8 85 23 148 35 14 3 52 12 85 20
33 8 79 17 102 20 22 3 52 7 65 10 129 25 236 44 293 51 22 3 54 7 70 10 17 3
53 7 81 9 29 3 62 7 75 10 13 3 52 8 86 11 35 3 68 7 75 10 7 2 66 6 131 9 65
3 122 8 127 11 5 3 113 8 242 11 128 3 235 8 238 11 5 5 274 -1 619 -13z"/>
<path d="M8460 17078 c-41 -4 -118 -9 -170 -13 -52 -3 -108 -8 -125 -10 -16
-3 -68 -7 -113 -10 -46 -3 -87 -7 -90 -9 -4 -2 -36 -7 -72 -10 -36 -4 -74 -9
-85 -11 -11 -2 -47 -7 -80 -10 -33 -4 -69 -8 -80 -11 -36 -7 -79 -15 -141 -24
-34 -5 -67 -12 -75 -14 -8 -3 -30 -7 -49 -10 -82 -12 -220 -40 -269 -55 -18
-6 -36 -10 -40 -9 -3 1 -13 -1 -21 -4 -17 -6 -115 -28 -142 -32 -10 -1 -21 -5
-24 -9 -4 -4 -17 -7 -29 -7 -11 0 -48 -8 -81 -19 -32 -10 -77 -24 -99 -29 -82
-23 -191 -54 -215 -63 -14 -5 -34 -11 -45 -14 -11 -2 -92 -29 -180 -60 -88
-31 -164 -57 -170 -59 -5 -2 -21 -8 -35 -13 -14 -6 -29 -8 -34 -5 -5 3 -6 1
-3 -5 3 -5 -16 -16 -44 -23 -28 -8 -52 -18 -55 -22 -3 -4 -12 -8 -20 -8 -8 0
-36 -9 -62 -21 -26 -12 -56 -25 -67 -29 -52 -21 -264 -114 -340 -149 -22 -11
-62 -29 -90 -42 -27 -12 -52 -25 -55 -28 -7 -8 -99 -51 -106 -50 -4 0 -10 -3
-13 -8 -3 -5 -37 -24 -76 -43 -38 -19 -72 -37 -75 -40 -3 -3 -25 -16 -50 -29
-108 -57 -125 -66 -128 -73 -2 -5 -7 -8 -12 -8 -4 0 -38 -18 -74 -40 -36 -22
-68 -40 -71 -40 -3 0 -18 -8 -33 -19 -74 -51 -243 -161 -248 -161 -9 0 -99
-63 -102 -72 -2 -4 -8 -8 -13 -8 -8 0 -71 -45 -122 -86 -9 -8 -22 -14 -27 -14
-6 0 -10 -3 -10 -7 -1 -5 -25 -24 -55 -43 -30 -19 -55 -38 -55 -42 0 -5 -6 -8
-13 -8 -7 0 -19 -9 -27 -20 -8 -11 -18 -20 -23 -20 -5 0 -14 -6 -21 -12 -7 -7
-28 -24 -46 -38 -18 -14 -40 -32 -50 -40 -10 -8 -32 -26 -50 -40 -18 -14 -39
-31 -46 -37 -7 -7 -15 -13 -18 -13 -6 0 -48 -36 -102 -87 -18 -18 -36 -33 -40
-33 -3 0 -21 -15 -39 -32 -18 -18 -52 -49 -75 -68 -23 -19 -57 -50 -75 -67
-18 -18 -38 -33 -45 -33 -6 0 -9 -3 -6 -8 2 -4 -12 -21 -31 -37 -80 -68 -437
-433 -523 -535 -12 -14 -35 -40 -51 -57 -16 -18 -28 -33 -25 -33 2 0 -10 -15
-27 -34 -73 -77 -92 -100 -90 -108 2 -4 -1 -8 -6 -8 -5 0 -28 -26 -52 -57 -24
-32 -48 -63 -54 -70 -12 -14 -18 -23 -65 -83 -19 -25 -40 -51 -47 -58 -7 -7
-20 -26 -30 -42 -9 -17 -21 -30 -25 -30 -4 0 -8 -6 -8 -14 0 -8 -4 -16 -8 -18
-5 -1 -23 -25 -42 -53 -18 -27 -36 -52 -39 -55 -3 -3 -20 -25 -36 -50 -17 -25
-35 -51 -42 -57 -6 -7 -21 -29 -34 -50 -13 -21 -28 -41 -33 -45 -6 -4 -8 -8
-4 -8 4 0 -19 -39 -51 -87 -31 -49 -75 -117 -97 -153 -21 -36 -45 -71 -52 -78
-7 -8 -10 -18 -7 -23 4 -5 3 -9 -2 -9 -4 0 -19 -23 -32 -50 -14 -28 -29 -50
-34 -50 -4 0 -6 -4 -2 -9 3 -5 1 -12 -4 -15 -11 -7 -89 -148 -87 -157 0 -4 -6
-15 -15 -25 -21 -25 -199 -382 -199 -400 0 -8 -4 -14 -10 -14 -5 0 -10 -6 -10
-12 0 -7 -13 -41 -29 -75 -16 -34 -27 -64 -24 -67 4 -3 1 -6 -5 -6 -7 0 -12
-5 -12 -11 0 -5 -11 -35 -25 -65 -14 -30 -25 -61 -25 -69 0 -8 -4 -15 -10 -15
-5 0 -10 -6 -10 -14 0 -7 -8 -31 -17 -52 -9 -22 -17 -41 -18 -44 0 -6 -24 -69
-36 -95 -10 -24 -32 -78 -34 -85 0 -3 -9 -30 -20 -60 -11 -30 -20 -57 -20 -60
-9 -35 -21 -68 -31 -89 -8 -14 -14 -31 -14 -38 0 -6 -5 -24 -12 -40 -6 -15
-12 -30 -13 -33 -1 -3 -8 -25 -15 -50 -17 -57 -16 -52 -22 -70 -6 -15 -67
-232 -73 -260 -2 -8 -11 -40 -19 -70 -8 -30 -24 -93 -35 -140 -11 -47 -27
-114 -35 -150 -14 -58 -36 -168 -50 -255 -3 -16 -15 -79 -26 -140 -11 -60 -23
-132 -25 -160 -3 -27 -7 -59 -9 -70 -3 -11 -7 -47 -11 -80 -3 -33 -8 -71 -11
-85 -4 -14 -8 -45 -10 -70 -2 -25 -6 -63 -9 -85 -3 -22 -7 -76 -10 -120 -3
-44 -7 -102 -10 -130 -12 -122 -17 -282 -17 -585 0 -297 3 -390 17 -565 3 -33
7 -89 10 -125 7 -111 19 -222 30 -282 3 -18 8 -58 11 -88 12 -134 87 -564 124
-715 11 -44 22 -93 25 -110 3 -16 10 -46 15 -65 5 -19 11 -46 14 -60 3 -14 10
-41 16 -60 18 -56 22 -74 22 -92 -1 -10 3 -18 8 -18 4 0 10 -15 13 -32 2 -18
14 -64 26 -103 12 -38 24 -77 26 -85 2 -8 33 -103 70 -210 37 -107 67 -201 68
-207 0 -7 4 -13 9 -13 4 0 7 -3 6 -7 0 -5 2 -17 7 -28 53 -134 89 -231 87
-237 -1 -5 2 -8 6 -8 5 0 9 -6 9 -12 0 -7 9 -33 21 -58 11 -25 35 -76 52 -115
18 -38 33 -76 33 -82 0 -7 4 -13 9 -13 4 0 8 -6 8 -13 0 -7 46 -105 101 -218
87 -173 124 -243 204 -381 6 -10 23 -42 39 -73 16 -30 33 -55 38 -55 4 0 7 -3
6 -8 -1 -4 11 -29 27 -57 42 -72 257 -409 264 -415 3 -3 20 -25 36 -50 16 -25
32 -47 35 -50 3 -3 33 -43 65 -90 62 -89 63 -90 96 -130 11 -14 30 -38 42 -53
12 -16 46 -59 75 -95 29 -37 56 -72 60 -77 12 -17 105 -128 136 -163 17 -18
37 -42 46 -53 67 -87 406 -440 547 -571 34 -31 59 -59 56 -62 -4 -3 -1 -6 6
-6 6 0 22 -10 35 -22 40 -40 178 -160 260 -229 16 -13 39 -34 52 -47 13 -12
25 -22 28 -22 6 0 37 -24 61 -47 8 -7 19 -13 25 -13 6 0 8 -5 5 -10 -3 -6 -1
-10 4 -10 11 0 39 -21 78 -57 13 -13 27 -23 31 -23 4 0 25 -16 47 -35 22 -19
48 -37 58 -41 9 -3 17 -10 17 -15 0 -5 7 -9 16 -9 8 0 12 -4 9 -10 -3 -5 -1
-10 5 -10 11 0 62 -33 88 -58 7 -6 23 -17 35 -23 11 -7 26 -16 31 -21 37 -31
123 -90 152 -104 19 -9 34 -20 34 -25 0 -5 6 -9 13 -9 7 0 23 -9 35 -20 12
-11 25 -20 30 -20 4 0 17 -8 28 -17 11 -10 30 -24 42 -30 12 -7 32 -19 44 -25
12 -7 28 -19 36 -25 7 -7 30 -20 50 -30 20 -9 39 -19 42 -22 3 -4 16 -12 29
-19 63 -36 89 -51 131 -76 25 -15 53 -29 63 -33 9 -3 17 -9 17 -14 0 -5 9 -9
19 -9 11 0 21 -3 23 -8 4 -10 405 -214 448 -227 14 -4 36 -15 49 -24 13 -8 29
-16 35 -17 6 -1 38 -14 71 -29 69 -31 121 -54 150 -65 11 -4 41 -17 68 -29 26
-11 54 -21 62 -21 8 0 15 -4 15 -8 0 -5 7 -9 15 -10 8 -1 22 -3 30 -4 8 -1 15
-5 15 -10 0 -4 9 -8 19 -8 11 0 36 -9 58 -20 21 -10 135 -51 253 -90 118 -39
222 -74 230 -77 8 -3 22 -7 30 -8 8 -1 42 -10 75 -20 33 -9 72 -20 88 -22 15
-3 27 -10 27 -15 0 -5 4 -7 10 -3 5 3 25 -1 45 -9 19 -8 35 -13 35 -11 0 3 12
0 26 -6 15 -5 43 -12 63 -15 20 -3 50 -9 66 -14 17 -4 58 -14 93 -21 34 -7 62
-17 62 -22 0 -4 4 -6 8 -3 4 3 26 1 48 -5 21 -5 55 -11 74 -14 19 -3 46 -8 60
-11 14 -3 36 -8 50 -10 14 -2 41 -7 60 -10 19 -3 46 -8 60 -10 24 -4 90 -16
100 -19 12 -3 99 -15 145 -20 28 -3 61 -8 75 -11 13 -3 49 -7 79 -10 30 -2 62
-6 71 -9 8 -2 49 -7 90 -10 41 -3 95 -7 120 -10 25 -3 83 -7 130 -10 47 -3
103 -8 125 -11 59 -10 731 -11 865 -2 63 4 158 10 210 13 52 2 113 7 135 10
22 2 65 7 95 10 30 3 69 7 85 10 17 2 50 7 75 10 67 7 273 35 290 39 31 6 86
16 121 20 20 3 42 8 50 11 8 3 32 7 54 10 43 5 117 19 180 34 22 6 54 13 70
16 17 4 66 15 110 25 44 11 91 21 105 23 14 2 32 6 40 9 8 4 38 11 65 18 28 7
61 16 75 20 14 5 59 18 100 30 41 12 86 26 100 30 14 4 59 18 100 30 41 12 89
27 105 34 17 6 33 11 37 11 3 0 10 3 14 7 4 5 18 8 31 8 12 0 23 5 23 10 0 6
7 10 15 10 21 0 168 50 183 62 6 6 12 7 12 2 0 -4 5 -3 12 4 7 7 20 12 30 12
10 0 18 5 18 10 0 6 8 10 19 10 10 0 31 7 47 14 15 8 31 13 36 10 4 -3 8 0 8
5 0 6 7 11 15 11 8 0 37 9 63 21 26 12 58 26 72 31 14 6 37 17 53 25 15 8 27
11 27 6 0 -4 4 -3 8 2 6 9 38 26 87 46 11 4 60 26 108 49 49 22 93 40 97 40 5
0 10 3 12 8 2 4 53 32 113 62 61 30 111 58 113 63 2 4 12 7 23 7 10 0 19 5 19
10 0 6 9 10 20 10 11 0 20 5 20 10 0 6 9 10 20 10 11 0 20 5 20 10 0 6 7 10
15 10 8 0 15 4 15 8 0 5 16 14 35 22 19 8 35 17 35 20 0 3 16 12 35 20 19 8
35 17 35 20 0 3 16 12 35 20 19 8 35 17 35 22 0 4 9 8 20 8 11 0 20 4 20 9 0
5 14 14 30 21 17 7 30 16 30 21 0 5 4 9 10 9 9 0 151 88 177 110 7 5 17 10 23
10 5 0 10 5 10 10 0 6 4 10 9 10 6 0 31 15 57 33 25 17 53 37 62 42 9 6 25 18
36 28 11 9 23 17 28 17 7 0 33 19 62 46 6 5 40 30 75 53 63 43 90 64 116 88 8
7 16 13 19 13 7 0 39 26 72 57 13 13 25 23 28 23 5 0 33 21 60 45 6 6 27 22
46 35 34 24 69 54 115 97 13 13 29 23 35 23 6 0 8 5 5 10 -3 6 1 10 10 10 9 0
13 5 10 10 -3 6 -1 10 4 10 11 0 50 31 97 78 13 12 25 22 28 22 3 0 38 32 77
70 39 39 75 70 80 70 6 0 7 4 4 10 -3 5 -2 10 3 10 5 0 41 32 81 70 39 39 77
70 83 70 6 0 9 3 6 6 -3 3 27 40 68 82 41 42 74 80 74 85 0 4 7 7 17 7 9 0 14
2 11 5 -3 3 18 30 46 59 28 29 71 77 96 106 59 69 129 149 157 177 12 13 20
23 17 23 -3 0 1 7 10 15 8 9 32 37 53 63 21 26 43 50 48 54 6 4 7 8 3 8 -4 0
3 11 15 24 12 13 27 30 32 38 26 35 100 123 107 126 5 2 8 9 8 16 0 7 9 21 20
31 11 10 17 22 14 26 -3 5 -2 9 3 9 4 0 19 17 33 38 24 36 29 43 58 77 7 8 10
15 7 15 -6 0 7 17 43 55 13 14 20 25 16 25 -4 0 3 9 15 19 12 11 22 22 21 25
-2 11 34 66 43 66 4 0 5 5 2 10 -3 6 -2 10 4 10 5 0 12 8 15 18 4 10 14 27 24
38 9 10 25 35 35 54 19 38 100 168 117 188 6 6 8 12 4 12 -4 0 0 8 8 18 9 9
28 40 42 67 14 28 44 79 65 115 39 64 83 149 85 162 1 4 7 13 14 20 6 6 12 20
12 29 0 10 4 19 9 21 15 6 228 454 224 470 -2 4 2 8 7 8 5 0 10 3 9 8 -2 16
14 52 24 52 6 0 8 3 5 6 -3 3 11 46 32 95 21 49 39 93 40 97 1 4 9 23 17 42 8
19 16 42 18 50 2 8 15 42 29 75 14 33 26 68 26 78 0 9 5 17 12 17 6 0 9 3 6 6
-6 5 12 72 32 119 17 42 26 69 33 98 1 6 5 17 9 22 5 9 54 168 63 205 2 8 15
58 30 110 15 52 29 102 31 110 12 48 56 227 59 240 2 8 12 56 24 105 19 84 66
327 77 405 3 19 7 42 10 50 3 8 7 41 10 75 3 33 7 67 9 75 2 8 7 38 10 65 3
28 8 64 10 80 14 95 23 177 30 295 3 47 7 108 10 135 13 118 16 261 16 585 -1
344 -2 389 -15 550 -4 47 -9 111 -11 143 -2 32 -7 86 -11 120 -3 34 -8 73 -9
87 -1 14 -5 43 -8 65 -4 22 -9 64 -12 94 -3 30 -8 57 -10 60 -2 4 -6 33 -9 66
-3 33 -12 96 -20 140 -9 44 -18 96 -21 115 -13 80 -47 249 -60 300 -8 30 -17
69 -20 85 -3 17 -17 75 -30 130 -14 55 -27 108 -30 118 -2 10 -7 27 -10 37 -3
10 -8 27 -10 37 -2 10 -18 65 -35 123 -17 58 -33 114 -36 125 -8 33 -10 39
-23 70 -7 17 -14 37 -16 45 -2 8 -10 34 -19 58 -8 23 -12 42 -8 42 4 0 2 4 -3
8 -12 8 -62 162 -57 175 1 5 -2 6 -8 2 -5 -3 -10 2 -10 11 0 17 -84 238 -123
324 -11 25 -20 51 -20 58 0 6 -4 12 -9 12 -4 0 -8 4 -8 10 0 5 -16 45 -35 87
-20 43 -43 96 -53 118 -36 83 -186 380 -195 386 -5 3 -7 8 -6 10 2 2 -13 34
-34 71 -20 36 -37 69 -37 72 0 2 -17 33 -38 68 -22 35 -58 97 -82 138 -24 41
-50 83 -58 93 -8 9 -11 17 -6 17 5 0 4 4 -1 8 -15 10 -75 107 -75 120 0 7 -5
12 -10 12 -6 0 -18 16 -27 35 -9 19 -20 35 -25 35 -4 0 -8 5 -8 11 0 6 -21 41
-47 77 -58 80 -67 93 -118 168 -22 33 -46 65 -53 73 -7 8 -21 26 -30 40 -15
23 -112 149 -137 177 -5 6 -17 22 -25 34 -8 12 -20 28 -25 34 -6 6 -26 31 -45
56 -19 25 -39 50 -45 56 -66 73 -142 160 -149 173 -5 9 -25 31 -43 48 -18 18
-33 35 -33 38 0 18 -548 563 -623 619 -14 11 -23 24 -20 29 3 6 1 7 -5 3 -6
-3 -19 5 -30 19 -11 14 -25 25 -31 25 -6 0 -11 5 -11 10 0 6 -7 10 -17 10 -9
0 -14 3 -10 6 3 3 -22 29 -56 57 -34 28 -64 54 -67 57 -3 3 -23 19 -45 36 -40
29 -61 46 -95 74 -9 8 -32 26 -50 40 -18 14 -39 31 -46 38 -7 6 -15 12 -18 12
-5 0 -34 22 -60 45 -6 6 -33 26 -61 45 -27 19 -51 37 -53 42 -2 4 -10 8 -18 8
-8 0 -14 4 -14 8 0 4 -15 16 -32 27 -18 10 -38 24 -45 29 -34 30 -43 36 -52
36 -5 0 -11 4 -13 8 -1 5 -41 33 -88 62 -47 30 -87 57 -90 60 -9 9 -65 41 -82
47 -10 3 -18 9 -18 14 0 5 -7 9 -16 9 -8 0 -12 5 -9 10 3 6 -3 10 -14 10 -12
0 -21 4 -21 9 0 5 -13 14 -30 21 -16 7 -30 16 -30 21 0 5 -7 9 -16 9 -8 0 -34
13 -57 28 -23 15 -64 39 -90 52 -26 14 -57 33 -67 43 -11 9 -23 17 -28 17 -14
0 -62 25 -62 33 0 4 -9 7 -19 7 -11 0 -21 3 -23 8 -1 4 -61 36 -133 72 -71 36
-131 68 -133 73 -2 4 -8 7 -13 7 -5 0 -37 14 -71 30 -34 17 -67 30 -75 30 -7
0 -13 5 -13 10 0 6 -6 10 -14 10 -8 0 -53 18 -100 40 -47 22 -90 40 -96 40 -5
0 -10 5 -10 10 0 6 -11 10 -24 10 -14 0 -28 5 -31 10 -3 6 -15 10 -25 10 -10
0 -20 3 -22 8 -1 4 -28 15 -58 26 -30 10 -64 22 -75 26 -11 4 -23 8 -28 9 -4
0 -28 11 -55 24 -26 13 -81 34 -122 46 -41 13 -82 26 -90 30 -8 4 -76 27 -150
51 -74 23 -144 46 -155 50 -11 5 -42 14 -70 20 -27 7 -57 15 -65 18 -8 3 -17
6 -20 6 -23 5 -108 29 -120 34 -8 3 -22 7 -30 8 -8 1 -64 14 -125 28 -178 43
-274 65 -315 72 -14 2 -36 7 -50 10 -31 7 -121 23 -175 30 -22 3 -56 9 -75 14
-30 8 -196 31 -320 46 -19 2 -55 7 -80 10 -25 3 -61 8 -80 10 -19 1 -62 6 -95
9 -33 3 -96 8 -140 10 -44 2 -111 7 -150 11 -91 10 -788 11 -885 2z m935 -230
c6 -3 62 -9 125 -12 63 -4 169 -14 235 -22 66 -8 134 -16 150 -18 17 -2 57 -7
90 -12 33 -4 69 -8 80 -9 36 -3 170 -27 185 -33 8 -3 18 -4 23 -4 4 1 26 -2
50 -7 23 -6 65 -13 92 -17 28 -3 54 -8 58 -11 4 -2 20 -6 35 -8 15 -2 79 -16
142 -31 135 -31 183 -42 228 -50 18 -4 35 -11 38 -15 3 -5 16 -9 29 -9 13 0
34 -4 47 -9 22 -8 40 -13 133 -40 22 -6 76 -22 120 -36 44 -15 91 -28 105 -31
13 -3 28 -11 32 -17 4 -7 8 -9 8 -4 0 4 17 0 38 -8 20 -9 39 -16 42 -16 11 1
76 -22 88 -32 6 -5 12 -7 12 -3 0 5 49 -11 105 -34 11 -5 42 -18 69 -29 27
-12 53 -21 57 -21 5 0 28 -9 52 -19 23 -10 69 -29 102 -42 33 -13 62 -27 63
-31 2 -5 10 -8 18 -8 14 0 67 -23 224 -97 146 -69 225 -107 230 -113 3 -3 50
-28 105 -56 149 -76 190 -98 193 -106 2 -5 10 -8 18 -8 8 0 14 -4 14 -10 0 -5
9 -10 20 -10 11 0 20 -3 20 -7 0 -5 10 -13 23 -19 56 -28 113 -60 125 -71 6
-6 21 -15 32 -18 11 -3 20 -10 20 -13 0 -4 21 -19 48 -32 26 -14 49 -28 52
-31 3 -3 28 -20 55 -39 28 -19 53 -38 57 -44 4 -6 8 -7 8 -3 0 10 60 -25 60
-35 0 -4 7 -8 15 -8 8 0 15 -4 15 -10 0 -5 6 -10 14 -10 8 0 16 -4 18 -8 5
-13 175 -132 188 -132 6 0 8 -4 5 -10 -3 -5 0 -10 8 -10 7 0 23 -9 35 -20 12
-11 24 -20 28 -20 4 0 14 -8 23 -18 9 -10 32 -29 51 -42 19 -13 40 -29 46 -35
6 -5 26 -21 44 -35 18 -14 38 -29 44 -35 6 -5 27 -22 46 -36 19 -15 49 -39 65
-53 17 -14 34 -26 38 -26 5 0 5 -4 2 -10 -3 -5 -1 -10 5 -10 6 0 17 -6 24 -12
7 -7 37 -33 66 -58 88 -76 161 -142 225 -205 34 -33 80 -77 102 -97 23 -20 39
-39 35 -42 -3 -3 0 -6 7 -6 7 0 33 -23 59 -51 26 -28 81 -86 122 -129 100
-104 143 -152 215 -235 32 -39 66 -77 75 -86 30 -32 150 -181 223 -277 17 -24
37 -48 42 -55 57 -69 85 -107 85 -116 0 -6 4 -11 8 -11 4 0 19 -18 32 -40 14
-22 29 -40 33 -40 5 0 5 -4 2 -10 -3 -5 -1 -10 6 -10 7 0 10 -3 7 -6 -3 -3 4
-16 16 -28 25 -27 67 -89 141 -206 30 -47 59 -90 65 -97 5 -7 15 -24 22 -38 6
-14 15 -25 20 -25 5 0 6 -4 3 -10 -3 -5 -2 -10 3 -10 5 0 15 -13 22 -30 7 -16
17 -30 23 -30 6 0 8 -3 4 -6 -3 -4 1 -13 9 -21 8 -8 12 -19 9 -24 -4 -5 -2 -9
3 -9 6 0 19 -19 31 -42 12 -24 42 -77 66 -118 25 -41 81 -147 126 -235 45 -88
87 -163 93 -167 6 -4 8 -8 3 -8 -4 0 4 -22 18 -50 14 -27 22 -50 18 -50 -5 0
-3 -4 2 -8 6 -4 15 -18 22 -32 6 -14 30 -65 53 -114 23 -50 42 -95 43 -100 1
-6 5 -14 10 -17 4 -3 9 -15 12 -27 2 -12 10 -36 19 -54 63 -142 246 -658 271
-768 2 -8 20 -71 40 -140 33 -109 43 -150 69 -271 3 -13 10 -42 15 -64 5 -22
8 -41 6 -44 -3 -2 -1 -9 4 -15 8 -10 28 -108 86 -421 13 -70 34 -218 50 -355
2 -25 7 -61 10 -80 3 -19 7 -68 10 -109 3 -40 7 -88 10 -105 2 -17 7 -78 11
-136 3 -58 8 -130 10 -160 5 -80 5 -731 0 -756 -2 -12 -7 -79 -10 -150 -4 -71
-8 -140 -11 -154 -2 -14 -7 -61 -10 -105 -4 -44 -8 -82 -10 -85 -1 -3 -5 -37
-9 -75 -4 -39 -8 -81 -11 -95 -2 -14 -6 -47 -10 -75 -3 -27 -13 -90 -21 -140
-9 -49 -18 -105 -20 -123 -2 -18 -5 -41 -8 -50 -3 -9 -8 -34 -12 -56 -3 -21
-8 -48 -11 -60 -7 -31 -23 -107 -28 -138 -3 -15 -9 -38 -15 -52 -5 -15 -8 -26
-5 -26 2 0 -1 -15 -6 -32 -6 -18 -12 -43 -15 -55 -17 -88 -17 -90 -54 -223
-12 -41 -23 -82 -25 -90 -1 -8 -11 -42 -20 -75 -10 -33 -17 -61 -16 -63 1 -1
-6 -16 -14 -32 -8 -16 -15 -32 -15 -35 1 -8 -21 -87 -30 -110 -5 -11 -16 -43
-25 -71 -13 -43 -19 -51 -35 -47 -11 3 -20 9 -20 14 0 5 -6 9 -13 9 -7 0 -22
8 -33 18 -10 9 -32 24 -49 32 -16 8 -32 18 -35 21 -5 6 -86 51 -165 93 -22 12
-41 24 -43 29 -2 4 -8 7 -13 7 -5 0 -47 18 -94 40 -47 22 -91 40 -100 40 -8 0
-15 5 -15 10 0 6 -7 10 -15 10 -8 0 -23 4 -33 9 -95 49 -411 145 -623 191
-113 24 -259 50 -314 56 -22 2 -60 7 -85 10 -25 4 -58 8 -75 10 -16 2 -48 6
-70 8 -22 3 -78 8 -125 12 -47 3 -101 9 -120 13 -63 12 -342 4 -450 -13 -58
-9 -114 -18 -125 -19 -11 -1 -22 -5 -25 -8 -3 -4 -21 -9 -40 -12 -46 -7 -204
-59 -208 -69 -2 -4 -10 -8 -18 -8 -8 0 -34 -9 -56 -20 -23 -11 -48 -20 -55
-20 -7 0 -13 -4 -13 -10 0 -5 -5 -10 -11 -10 -11 0 -141 -60 -149 -69 -9 -10
-104 -56 -108 -53 -3 2 -8 0 -11 -5 -6 -8 -121 -66 -168 -84 -13 -5 -33 -13
-45 -18 -67 -28 -112 -35 -213 -35 -60 0 -119 4 -130 8 -11 5 -26 10 -34 12
-29 6 -102 48 -129 74 -34 34 -77 84 -74 88 1 1 -4 15 -12 30 -17 33 -53 145
-61 187 -2 17 -7 41 -10 54 -2 13 -7 58 -11 99 -3 42 -8 85 -10 96 -5 27 -5
614 0 641 2 11 7 106 10 210 4 105 9 217 11 250 2 33 7 134 10 225 4 91 10
226 14 300 8 146 6 374 -3 455 -3 28 -8 74 -11 102 -4 29 -10 66 -15 82 -4 16
-6 31 -4 34 4 4 -38 209 -55 264 -5 17 -7 34 -3 37 3 3 1 6 -5 6 -5 0 -10 6
-10 13 -1 23 -12 62 -32 115 -11 29 -20 56 -20 60 0 4 -7 23 -14 42 -8 19 -23
55 -32 80 -27 70 -157 335 -167 338 -4 2 -8 9 -8 16 0 6 -20 43 -45 80 -25 38
-45 73 -45 77 0 5 -4 9 -10 9 -5 0 -10 5 -10 11 0 13 -115 172 -148 206 -7 7
-12 13 -9 13 13 0 -242 264 -324 335 -75 64 -89 75 -97 75 -4 0 -14 9 -22 20
-8 11 -20 20 -26 20 -7 0 -14 4 -16 8 -1 5 -25 23 -53 42 -27 18 -52 36 -55
39 -3 3 -15 12 -27 19 -13 6 -33 18 -45 25 -13 6 -25 14 -28 17 -3 3 -25 15
-50 28 -25 13 -61 32 -80 42 -201 104 -466 187 -690 215 -19 3 -55 7 -80 11
-79 12 -115 10 -132 -5 -16 -13 -18 -39 -18 -287 0 -293 0 -295 53 -309 71
-19 103 -29 111 -37 6 -4 20 -8 32 -8 13 0 26 -4 29 -10 3 -5 15 -10 26 -10
10 0 19 -4 19 -10 0 -5 6 -10 13 -10 10 0 78 -33 198 -96 15 -8 32 -21 39 -29
7 -8 17 -15 22 -15 8 0 73 -46 142 -100 53 -41 231 -230 218 -230 -4 0 -2 -4
4 -8 9 -6 71 -89 102 -137 40 -64 147 -302 156 -350 1 -5 5 -19 9 -30 3 -11 9
-31 11 -45 3 -14 10 -43 15 -65 51 -209 60 -482 26 -800 -4 -37 -8 -65 -19
-121 -2 -12 -7 -38 -10 -58 -6 -35 -50 -241 -63 -296 -3 -14 -7 -29 -8 -35 -2
-5 -10 -45 -20 -87 -9 -43 -17 -80 -16 -83 0 -2 -6 -23 -14 -45 -8 -22 -12
-40 -10 -40 2 0 -2 -18 -10 -40 -8 -22 -12 -40 -10 -40 2 0 -2 -18 -10 -39 -7
-22 -16 -56 -19 -76 -4 -21 -8 -40 -11 -44 -5 -9 -16 -59 -20 -92 -1 -14 -8
-36 -14 -48 -7 -11 -9 -21 -7 -21 3 0 1 -12 -5 -26 -5 -15 -12 -43 -15 -63 -3
-20 -10 -43 -14 -51 -4 -8 -11 -32 -14 -54 -4 -21 -8 -41 -11 -45 -4 -7 -9
-28 -20 -88 -3 -16 -8 -35 -11 -43 -3 -8 -8 -26 -10 -40 -3 -14 -14 -63 -25
-110 -46 -194 -58 -248 -69 -305 -6 -33 -16 -78 -21 -100 -5 -22 -11 -53 -13
-70 -10 -75 -18 -121 -22 -133 -2 -8 -7 -37 -10 -65 -3 -29 -7 -65 -10 -82 -2
-16 -7 -50 -9 -75 -3 -25 -8 -74 -11 -110 -16 -156 -11 -448 10 -625 8 -64 43
-226 60 -273 8 -23 16 -46 17 -50 3 -12 11 -35 35 -98 13 -33 24 -63 24 -67 0
-3 27 -64 61 -134 33 -70 59 -130 59 -132 -1 -2 2 -7 7 -10 4 -3 18 -24 30
-46 45 -85 154 -268 163 -275 6 -4 33 -43 75 -108 6 -9 13 -21 17 -26 8 -12
87 -114 100 -131 45 -55 76 -104 70 -110 -4 -3 -2 -5 5 -3 6 2 13 -1 14 -6 2
-5 19 -26 37 -45 65 -71 71 -79 65 -85 -4 -3 2 -6 12 -6 10 0 16 -3 13 -6 -7
-6 44 -63 178 -201 44 -46 79 -83 78 -83 -1 0 25 -26 59 -57 33 -32 68 -65 78
-75 47 -45 29 -76 -73 -127 -37 -19 -65 -38 -62 -42 3 -5 1 -9 -4 -9 -5 0 -12
-9 -15 -19 -9 -35 47 -79 131 -104 67 -19 84 -30 143 -87 37 -36 74 -70 81
-75 23 -18 146 -75 163 -75 8 0 23 -4 33 -10 22 -12 141 -50 159 -50 7 0 13
-4 13 -9 0 -4 12 -7 28 -6 39 3 42 4 42 15 0 6 5 16 10 23 17 20 80 129 80
138 0 5 4 9 8 9 5 0 20 16 34 35 31 44 113 129 168 175 23 19 48 41 55 48 8 6
21 12 29 12 9 0 16 4 16 9 0 13 135 69 185 76 74 12 186 17 202 10 10 -5 24
-7 31 -6 29 5 177 -56 246 -102 22 -14 93 -76 110 -95 6 -7 20 -23 31 -35 11
-12 36 -47 56 -77 139 -214 175 -470 107 -755 -7 -27 -11 -53 -10 -57 2 -10
-98 -93 -109 -91 -5 2 -9 -1 -9 -7 0 -5 -21 -24 -47 -41 -27 -18 -49 -36 -51
-41 -2 -4 -8 -8 -14 -8 -5 0 -15 -6 -23 -13 -25 -24 -50 -42 -77 -56 -15 -8
-37 -22 -47 -33 -11 -10 -23 -18 -26 -18 -3 0 -15 -9 -27 -20 -12 -11 -28 -20
-35 -20 -7 0 -13 -4 -13 -10 0 -5 -7 -10 -15 -10 -8 0 -15 -4 -15 -10 0 -5 -7
-10 -15 -10 -8 0 -15 -4 -15 -10 0 -5 -7 -10 -15 -10 -8 0 -15 -4 -15 -10 0
-5 -7 -10 -15 -10 -8 0 -15 -4 -15 -10 0 -5 -7 -10 -15 -10 -8 0 -15 -4 -15
-10 0 -5 -7 -10 -15 -10 -8 0 -15 -4 -15 -10 0 -5 -5 -10 -10 -10 -6 0 -41
-19 -78 -41 -116 -72 -235 -141 -297 -173 -33 -17 -61 -34 -63 -38 -2 -5 -12
-8 -22 -8 -10 0 -20 -4 -22 -8 -1 -4 -28 -20 -58 -35 -30 -15 -66 -33 -80 -41
-33 -18 -106 -55 -155 -78 -22 -10 -57 -28 -78 -38 -22 -11 -45 -20 -53 -20
-8 0 -14 -3 -14 -8 0 -4 -15 -13 -32 -20 -18 -8 -42 -18 -53 -22 -11 -5 -49
-21 -85 -36 -36 -14 -81 -33 -100 -41 -19 -8 -45 -19 -57 -24 -13 -5 -33 -13
-45 -18 -13 -5 -61 -23 -108 -41 -47 -18 -94 -36 -105 -40 -11 -5 -49 -19 -85
-31 -36 -12 -92 -32 -125 -44 -33 -12 -62 -22 -65 -23 -21 -2 -69 -15 -85 -23
-12 -6 -28 -11 -38 -13 -9 -1 -20 -5 -23 -9 -4 -4 -19 -7 -34 -7 -14 0 -30 -4
-36 -8 -8 -7 -89 -30 -126 -36 -7 -1 -17 -4 -23 -7 -5 -4 -35 -12 -65 -19 -30
-7 -66 -16 -80 -21 -14 -5 -36 -11 -50 -13 -14 -3 -45 -10 -70 -16 -153 -38
-501 -105 -650 -125 -25 -3 -52 -8 -60 -10 -8 -2 -46 -7 -85 -10 -38 -4 -72
-8 -75 -10 -4 -2 -40 -6 -81 -10 -41 -3 -105 -9 -142 -13 -38 -5 -93 -8 -123
-8 -29 1 -55 -3 -57 -8 -4 -12 -897 -17 -1027 -6 -52 5 -142 11 -200 15 -58 4
-112 9 -120 11 -8 3 -46 8 -85 10 -38 3 -114 12 -170 20 -55 8 -120 18 -145
20 -25 3 -63 10 -85 14 -22 5 -55 10 -72 10 -18 0 -33 5 -33 11 0 5 -4 7 -10
4 -5 -3 -78 8 -162 25 -84 18 -164 34 -178 36 -14 3 -32 7 -40 10 -8 3 -26 8
-40 10 -14 2 -41 8 -60 14 -19 5 -64 16 -100 25 -36 9 -81 21 -100 26 -19 5
-43 11 -53 14 -10 2 -32 8 -50 13 -106 32 -180 54 -236 72 -35 11 -68 20 -71
20 -4 0 -25 8 -46 17 -22 9 -45 18 -52 19 -8 1 -21 6 -30 10 -9 4 -23 8 -30
10 -8 1 -21 6 -30 10 -9 4 -22 8 -29 10 -6 1 -58 20 -114 43 -57 23 -109 41
-116 41 -7 0 -13 5 -13 11 0 5 -4 8 -8 5 -4 -2 -21 1 -37 9 -17 7 -51 22 -77
34 -26 11 -50 21 -53 21 -3 0 -38 15 -77 33 -40 19 -94 42 -120 53 -27 10 -48
22 -48 27 0 4 -6 7 -13 7 -7 0 -59 22 -115 50 -56 27 -107 50 -112 50 -4 0
-10 3 -12 8 -1 4 -25 18 -53 32 -27 13 -52 27 -55 30 -3 3 -39 22 -80 43 -41
20 -97 51 -125 67 -27 16 -66 38 -85 47 -19 10 -44 25 -54 35 -11 10 -28 18
-38 18 -10 0 -18 4 -18 8 0 5 -12 15 -27 23 -16 8 -30 16 -33 19 -10 10 -65
41 -82 47 -10 3 -18 9 -18 14 0 5 -7 9 -15 9 -8 0 -15 5 -15 10 0 6 -7 10 -15
10 -8 0 -15 4 -15 8 0 5 -20 19 -45 32 -24 12 -52 30 -62 39 -10 9 -36 28 -58
41 -22 13 -46 30 -53 37 -7 7 -26 20 -42 30 -17 9 -30 21 -30 26 0 4 -5 5 -10
2 -6 -3 -13 1 -16 9 -3 9 -12 16 -19 16 -7 0 -15 4 -17 8 -1 5 -23 22 -48 39
-25 17 -54 39 -65 50 -11 10 -37 29 -57 43 -23 15 -39 35 -43 55 -4 16 -9 35
-11 40 -2 6 -11 46 -20 90 -20 106 -13 361 13 425 7 18 10 29 17 57 2 11 12
35 20 52 9 17 13 31 9 31 -5 0 -3 4 2 8 6 4 21 27 34 52 35 65 114 169 129
170 7 0 10 5 7 10 -3 6 -3 10 2 10 4 0 22 14 40 30 18 17 37 30 42 30 6 0 11
5 11 10 0 6 7 10 15 10 8 0 15 5 15 10 0 6 8 10 18 10 10 0 24 6 30 12 7 7 16
13 20 14 4 0 21 6 37 14 105 45 294 48 405 7 77 -29 120 -50 120 -58 0 -5 7
-9 16 -9 8 0 21 -6 29 -12 7 -7 32 -29 56 -48 57 -46 96 -86 144 -146 22 -27
43 -50 48 -52 4 -2 7 -9 7 -15 0 -6 8 -20 19 -31 10 -12 29 -41 42 -66 13 -25
30 -51 37 -58 6 -7 12 -17 12 -21 0 -16 39 -7 180 41 80 27 151 50 158 50 6 1
12 4 12 8 0 3 15 11 33 18 31 11 171 135 162 144 -3 2 24 14 59 26 102 35 130
49 158 77 41 41 18 78 -77 125 -42 21 -85 54 -85 66 0 16 27 54 46 65 13 7 22
14 20 16 -2 2 24 30 57 61 57 54 108 107 187 193 78 86 97 107 135 154 22 26
55 63 73 82 18 18 30 33 27 33 -4 0 0 6 7 14 24 25 53 61 78 96 13 19 27 37
30 40 3 3 18 23 33 46 15 22 36 50 48 62 11 12 16 22 12 22 -4 0 -3 4 2 8 6 4
34 43 63 87 28 44 56 85 61 91 5 7 7 15 4 18 -4 3 -2 6 4 6 5 0 18 18 29 40
10 22 22 40 25 40 3 0 16 22 29 50 13 27 27 50 32 50 5 0 6 5 3 10 -3 6 -1 10
5 10 6 0 8 5 5 10 -3 6 -1 10 4 10 6 0 10 3 9 8 -3 10 64 146 76 154 6 4 8 8
3 8 -4 0 4 22 18 50 14 27 25 56 25 65 0 8 5 15 12 15 6 0 8 3 5 6 -3 4 -2 15
4 26 6 11 12 27 14 36 2 9 17 55 33 102 16 47 30 92 30 100 0 8 10 59 21 112
44 207 48 568 11 853 -5 39 -12 94 -15 124 -3 29 -7 57 -10 60 -2 4 -6 31 -10
60 -3 30 -10 62 -15 71 -5 10 -7 20 -4 22 2 3 0 27 -7 54 -6 27 -13 60 -15 74
-3 14 -7 32 -9 40 -2 8 -7 31 -10 50 -3 19 -12 62 -20 95 -8 33 -16 71 -19 85
-2 14 -16 70 -29 125 -14 55 -28 111 -31 125 -9 45 -14 67 -36 151 -12 46 -30
119 -41 162 -10 42 -28 112 -39 155 -10 42 -29 118 -41 167 -11 50 -23 97 -26
105 -2 8 -4 15 -4 15 0 0 -4 16 -8 35 -23 97 -100 439 -105 465 -2 17 -7 40
-10 51 -2 12 -7 39 -10 60 -4 22 -8 46 -11 54 -4 15 -9 61 -25 210 -11 104 -3
475 10 475 1 0 3 23 5 50 4 41 40 210 59 275 48 160 184 422 250 483 10 9 16
17 12 17 -9 0 6 17 106 121 47 49 89 89 93 89 3 0 16 10 29 23 32 30 65 57 72
57 2 0 14 9 26 20 12 11 28 20 35 20 7 0 13 5 13 10 0 6 7 10 15 10 8 0 15 3
15 8 0 4 15 13 33 21 17 8 34 17 37 20 19 23 245 119 342 146 93 26 88 9 88
318 -1 198 -4 276 -13 288 -13 17 -38 17 -147 4 -36 -5 -72 -9 -80 -10 -8 -1
-29 -5 -45 -9 -17 -3 -46 -9 -65 -11 -50 -6 -111 -21 -141 -33 -15 -6 -30 -8
-33 -5 -3 3 -11 2 -18 -4 -7 -5 -33 -15 -58 -22 -25 -7 -63 -21 -85 -32 -22
-10 -46 -19 -53 -19 -12 0 -22 -4 -79 -34 -18 -9 -34 -16 -35 -16 -7 3 -45
-15 -70 -32 -14 -10 -33 -18 -42 -18 -9 0 -16 -4 -16 -9 0 -5 -12 -12 -27 -16
-15 -3 -30 -10 -33 -13 -7 -10 -88 -62 -96 -62 -4 0 -14 -8 -23 -18 -9 -10
-30 -25 -48 -32 -17 -8 -29 -18 -27 -22 3 -4 -2 -8 -10 -8 -9 0 -16 -4 -16
-10 0 -5 -5 -10 -11 -10 -6 0 -16 -6 -23 -12 -7 -7 -28 -24 -46 -38 -146 -111
-354 -328 -482 -503 -20 -29 -41 -56 -45 -62 -5 -5 -23 -32 -40 -60 -18 -27
-36 -55 -40 -60 -5 -6 -19 -30 -32 -55 -14 -25 -29 -48 -35 -52 -7 -5 -7 -8
-1 -8 6 0 5 -3 -1 -8 -15 -10 -143 -270 -136 -276 3 -3 0 -6 -6 -6 -7 0 -11
-3 -10 -8 3 -6 -13 -48 -43 -117 -5 -11 -18 -49 -29 -85 -12 -36 -24 -72 -27
-80 -8 -21 -14 -40 -27 -100 -5 -19 -11 -39 -14 -45 -4 -5 -7 -14 -8 -20 -2
-13 -12 -63 -19 -100 -3 -16 -8 -36 -10 -43 -3 -8 -8 -37 -11 -65 -3 -29 -7
-58 -9 -65 -13 -37 -31 -290 -30 -404 1 -107 16 -487 20 -542 2 -17 6 -112 10
-211 4 -99 9 -205 11 -235 12 -172 16 -778 5 -896 -17 -189 -55 -359 -88 -392
-7 -8 -11 -18 -8 -23 4 -5 1 -9 -4 -9 -6 0 -11 -6 -11 -14 0 -19 -99 -110
-140 -129 -71 -32 -137 -45 -226 -43 -83 2 -194 22 -194 36 0 3 -10 6 -21 7
-27 2 -349 163 -349 174 0 5 -11 9 -25 9 -14 0 -25 5 -25 10 0 6 -5 10 -11 10
-6 0 -34 12 -63 26 -135 69 -344 138 -476 159 -25 4 -52 9 -60 10 -98 17 -372
26 -445 14 -22 -4 -79 -9 -126 -13 -47 -3 -92 -7 -100 -10 -8 -3 -50 -7 -94
-10 -44 -2 -87 -7 -95 -10 -8 -2 -35 -7 -60 -10 -25 -3 -58 -7 -75 -10 -16 -3
-43 -8 -60 -10 -45 -7 -95 -16 -140 -26 -22 -5 -53 -12 -70 -14 -46 -7 -218
-53 -330 -88 -55 -17 -101 -30 -102 -30 -2 1 -18 -5 -37 -13 -18 -8 -36 -11
-40 -8 -3 4 -6 1 -6 -5 0 -7 -7 -12 -15 -12 -8 0 -23 -4 -33 -9 -45 -24 -87
-39 -94 -35 -4 3 -8 0 -8 -5 0 -6 -4 -11 -9 -11 -5 0 -49 -19 -98 -42 -48 -23
-91 -41 -96 -40 -4 1 -7 -2 -7 -8 0 -5 -9 -10 -19 -10 -11 0 -21 -3 -23 -7 -2
-5 -23 -19 -48 -32 -25 -13 -81 -46 -125 -73 -44 -27 -89 -55 -100 -61 -11 -7
-23 -16 -26 -20 -4 -5 -14 -7 -24 -5 -20 4 -55 100 -131 363 -8 28 -17 57 -19
65 -33 111 -119 468 -139 573 -2 12 -7 33 -10 47 -5 23 -9 42 -21 105 -3 21
-17 109 -21 135 -2 15 -11 65 -19 110 -3 14 -7 50 -10 80 -3 30 -8 62 -10 70
-2 8 -7 46 -10 85 -4 38 -8 72 -10 75 -2 3 -6 41 -9 85 -3 44 -8 90 -10 103
-3 12 -8 77 -11 145 -4 67 -8 145 -11 172 -5 60 -5 716 0 765 2 19 7 85 11
145 4 61 9 121 10 135 2 14 6 68 10 120 4 52 8 97 10 100 2 3 6 39 10 80 4 41
8 77 10 80 2 3 6 34 9 70 4 36 11 88 16 115 5 28 12 64 15 80 3 17 8 49 10 72
2 24 6 47 9 52 3 5 8 26 11 47 9 68 27 158 35 184 5 14 11 41 14 61 3 20 8 44
12 53 4 10 8 25 9 34 1 10 5 31 9 47 4 17 12 50 18 75 6 25 19 76 30 114 11
38 21 76 24 85 14 61 41 148 48 159 4 7 5 16 2 19 -3 3 -1 14 5 25 6 11 12 27
14 36 2 9 15 51 30 92 14 41 28 82 30 90 2 8 16 49 30 90 14 41 28 83 30 92 2
9 9 26 15 38 6 12 13 30 15 40 2 11 11 36 20 57 9 21 24 54 32 73 8 19 17 44
19 54 2 11 9 23 15 26 6 4 10 10 9 14 -3 9 16 58 57 146 20 41 36 79 38 85 4
20 30 70 40 77 5 4 6 8 2 8 -5 0 -1 12 7 28 8 15 59 115 112 222 53 107 105
208 116 223 11 15 21 35 22 43 1 9 7 19 12 22 5 4 17 23 27 42 33 62 52 95 58
100 3 3 11 20 18 38 8 17 18 32 24 32 6 0 8 3 5 6 -5 4 61 114 90 149 4 6 8
12 8 15 1 3 13 23 28 45 15 22 57 85 93 139 36 55 74 109 84 120 11 11 19 26
19 33 0 7 3 13 8 13 4 0 18 17 32 38 14 20 29 40 35 44 5 4 6 8 2 8 -4 0 -2 7
5 15 7 9 18 21 23 28 6 7 26 32 45 57 19 25 37 47 40 50 3 3 21 25 40 50 19
25 39 48 45 52 5 4 7 8 3 8 -4 0 3 11 15 23 12 13 32 37 44 53 23 31 48 60 93
111 16 17 26 34 23 37 -4 3 2 6 12 6 10 0 16 3 12 6 -3 3 4 16 16 29 12 12 51
55 87 95 36 40 94 103 130 140 36 37 95 100 132 139 37 39 69 71 71 71 2 0 44
39 93 88 104 100 191 180 260 237 26 22 62 54 79 70 18 17 47 41 65 55 18 14
44 35 56 48 13 12 26 22 29 22 4 0 12 6 20 13 18 17 39 33 123 97 39 30 72 58
72 62 0 5 6 8 14 8 8 0 16 3 18 8 5 12 66 52 79 52 7 0 10 3 6 6 -7 7 58 54
73 54 6 0 10 3 10 8 0 4 18 18 40 32 22 14 40 28 40 32 0 5 5 8 11 8 6 0 28
14 49 30 21 17 40 30 44 30 3 0 53 32 110 70 58 39 110 70 116 70 5 0 10 4 10
8 0 5 21 20 48 33 26 13 49 27 50 32 2 4 10 7 17 7 7 0 15 3 17 8 2 4 26 18
53 32 28 14 52 27 55 30 5 5 27 18 75 44 11 6 22 13 25 16 3 3 37 21 75 40 39
19 92 47 118 62 26 16 54 28 62 28 8 0 15 3 15 8 0 8 49 32 67 32 7 0 13 3 13
8 0 4 15 13 33 21 17 7 64 28 103 47 40 18 84 36 98 40 14 3 26 10 26 15 0 5
9 9 19 9 11 0 21 5 23 10 2 6 13 12 26 13 12 0 22 4 22 7 0 3 17 12 38 19 20
7 48 17 62 23 14 6 35 15 48 19 12 5 32 13 45 19 12 5 29 11 37 12 8 2 17 6
20 9 3 3 34 15 70 28 36 12 77 29 92 37 15 8 29 14 30 14 4 -2 15 2 188 58
224 72 282 90 313 96 14 2 30 7 35 10 5 3 19 7 33 10 13 3 62 16 109 30 47 13
99 27 115 30 31 5 73 15 183 42 72 18 73 18 127 28 83 14 161 28 180 32 49 10
204 34 245 39 25 3 52 7 60 10 8 2 46 7 84 10 38 3 72 8 75 9 3 2 40 7 81 10
41 4 84 9 95 11 11 2 65 7 120 10 55 4 138 10 185 14 103 9 961 8 975 -1z
m-2055 -5621 c0 -7 -16 -19 -35 -27 -19 -8 -35 -17 -35 -20 0 -3 -17 -16 -37
-27 -21 -12 -47 -30 -58 -40 -11 -10 -40 -31 -64 -48 -24 -16 -45 -35 -48 -42
-3 -7 -10 -13 -15 -13 -12 0 -191 -181 -225 -226 -19 -26 -43 -56 -73 -92 -6
-7 -30 -41 -52 -75 -23 -34 -45 -64 -50 -65 -4 -2 -6 -7 -3 -12 3 -5 -2 -16
-11 -24 -8 -9 -12 -16 -8 -16 4 0 0 -8 -9 -17 -16 -19 -83 -157 -76 -159 2 0
-3 -9 -11 -18 -8 -10 -15 -23 -16 -30 -2 -6 -17 -47 -33 -91 -17 -44 -33 -89
-36 -100 -2 -11 -9 -36 -15 -55 -17 -57 -58 -270 -67 -345 -9 -91 -10 -398 -1
-495 9 -91 27 -210 32 -219 3 -4 7 -25 10 -46 2 -22 11 -65 19 -95 8 -30 24
-98 36 -150 27 -121 23 -105 71 -305 22 -93 42 -179 44 -190 2 -11 9 -40 16
-65 7 -25 14 -54 16 -65 3 -19 8 -39 19 -90 2 -11 11 -47 19 -80 24 -97 29
-119 32 -135 2 -8 7 -33 13 -55 6 -22 20 -83 32 -135 12 -52 34 -149 50 -215
16 -66 31 -129 33 -140 2 -11 20 -87 39 -170 20 -82 38 -168 41 -189 4 -21 8
-48 11 -60 2 -12 7 -39 10 -60 3 -21 7 -48 10 -60 3 -12 7 -41 9 -66 3 -25 8
-72 11 -105 10 -85 12 -378 4 -455 -4 -36 -10 -92 -13 -125 -20 -193 -102
-469 -181 -611 -14 -24 -25 -48 -26 -52 0 -4 -14 -29 -31 -57 -17 -27 -30 -51
-29 -53 1 -1 -4 -9 -11 -17 -7 -7 -26 -36 -43 -64 -16 -28 -34 -51 -38 -51 -5
0 -6 -4 -3 -9 3 -4 -3 -19 -14 -31 -11 -12 -22 -31 -25 -41 -4 -11 -10 -19
-15 -19 -5 0 -12 -9 -15 -20 -4 -11 -18 -32 -31 -45 -14 -14 -22 -25 -19 -25
3 0 -14 -26 -39 -59 -25 -32 -42 -61 -39 -65 4 -3 -1 -6 -11 -6 -9 0 -15 -4
-12 -8 3 -5 -5 -19 -17 -33 -13 -13 -34 -40 -47 -59 -24 -34 -39 -52 -88 -105
-13 -14 -20 -25 -17 -25 3 0 -14 -19 -37 -43 -24 -24 -60 -63 -81 -88 -60 -68
-149 -158 -218 -219 -34 -30 -67 -60 -73 -65 -6 -6 -31 -26 -56 -45 -25 -19
-54 -43 -64 -52 -11 -10 -26 -18 -33 -18 -8 0 -11 -4 -8 -10 3 -5 2 -10 -4
-10 -10 0 -101 -58 -111 -70 -3 -4 -20 -13 -37 -21 -18 -8 -33 -17 -33 -21 0
-5 -7 -8 -15 -8 -8 0 -15 -4 -15 -10 0 -5 -9 -10 -20 -10 -11 0 -20 -4 -20
-10 0 -24 -46 -7 -81 30 -21 22 -42 40 -46 40 -5 0 -15 9 -23 20 -8 11 -20 20
-27 20 -7 0 -13 3 -13 8 0 4 -20 18 -45 32 -25 14 -45 28 -45 32 0 5 -9 8 -20
8 -11 0 -20 5 -20 10 0 6 -9 10 -19 10 -11 0 -21 4 -23 8 -3 8 -165 64 -203
70 -30 5 -288 5 -305 -1 -8 -2 -22 -6 -30 -9 -57 -19 -89 -28 -103 -28 -9 0
-17 -4 -17 -10 0 -5 -9 -10 -19 -10 -11 0 -23 -4 -26 -10 -3 -5 -15 -10 -26
-10 -10 0 -19 -4 -19 -8 0 -5 -16 -14 -35 -22 -19 -8 -35 -17 -35 -20 0 -3
-17 -16 -37 -28 -69 -39 -253 -214 -253 -241 0 -5 -4 -11 -8 -13 -4 -1 -23
-25 -42 -53 -19 -27 -39 -53 -45 -57 -5 -4 -6 -8 -1 -8 5 0 2 -8 -7 -17 -12
-14 -99 -183 -104 -203 -3 -10 -16 -45 -30 -80 -8 -19 -23 -69 -34 -110 -27
-98 -27 -101 -28 -127 -1 -35 -30 -18 -139 84 -161 151 -415 409 -419 426 -1
5 -19 22 -39 38 -20 16 -33 29 -29 29 4 0 -7 14 -25 30 -18 17 -29 30 -26 30
3 0 -8 13 -24 28 -16 16 -27 32 -23 35 3 4 -2 7 -12 7 -10 0 -16 3 -12 6 3 3
-4 16 -16 28 -12 12 -38 42 -57 66 -19 24 -40 48 -45 54 -9 10 -123 154 -143
181 -25 34 -79 102 -89 113 -7 7 -13 17 -13 21 0 4 -9 19 -21 32 -11 13 -29
34 -40 46 -10 13 -16 23 -14 23 3 0 1 6 -5 13 -26 30 -90 121 -90 128 0 4 -6
14 -13 21 -7 7 -28 38 -47 68 -19 30 -38 60 -42 65 -29 36 -96 145 -90 145 4
0 2 4 -4 8 -6 4 -29 39 -52 77 -23 39 -46 76 -52 83 -6 6 -8 12 -5 12 3 0 -5
17 -19 37 -35 57 -100 177 -97 182 1 2 -1 7 -6 10 -16 12 -176 328 -176 348 0
7 -4 13 -7 13 -9 0 -36 61 -32 73 1 4 -3 7 -10 7 -6 0 -8 3 -5 6 4 4 -3 20
-14 35 -11 16 -18 29 -15 29 4 0 -10 32 -29 70 -19 39 -33 70 -31 70 2 0 -16
46 -40 101 -24 56 -44 107 -44 114 0 6 11 18 25 25 14 7 25 17 25 22 0 4 7 8
15 8 8 0 15 5 15 10 0 6 6 10 14 10 8 0 16 3 18 8 4 9 107 72 118 72 5 0 10 3
12 8 5 11 246 132 263 132 8 0 15 5 15 10 0 6 7 10 15 10 8 0 23 4 33 9 52 28
374 137 458 156 11 2 46 11 79 20 33 10 67 18 75 19 8 1 22 5 30 9 8 3 31 8
50 10 19 3 42 7 50 10 8 3 34 8 58 11 24 3 46 7 50 10 4 2 34 7 67 10 33 4 67
9 75 11 8 2 46 7 85 10 38 4 73 9 76 11 12 7 251 19 379 19 144 0 298 -11 332
-24 13 -5 28 -9 33 -9 28 -2 175 -48 175 -54 0 -5 7 -8 15 -8 20 0 108 -41
117 -54 4 -6 8 -8 8 -4 0 4 93 -40 208 -98 204 -103 342 -162 438 -185 71 -18
298 -20 375 -4 35 8 64 14 64 14 0 0 9 3 20 6 47 16 130 49 135 54 3 3 18 13
34 21 41 21 147 126 182 180 16 25 33 48 37 51 5 3 8 9 7 13 -1 4 11 32 26 64
15 31 27 64 27 72 0 8 3 17 7 20 6 5 39 133 45 175 2 11 8 49 14 85 24 150 31
478 17 795 -3 72 -8 193 -11 270 -3 77 -8 163 -10 190 -26 328 -26 1132 0
1174 2 4 6 29 10 55 7 61 19 117 54 241 19 70 43 142 60 180 5 11 22 52 37 90
34 85 110 240 136 278 11 15 16 27 11 27 -4 0 -3 4 2 8 6 4 26 32 45 62 32 51
86 129 110 157 5 7 10 15 10 18 0 4 6 12 13 19 6 7 23 28 37 46 98 131 282
320 400 410 25 19 51 40 58 47 7 7 26 20 42 30 17 9 30 21 30 25 0 4 6 8 13 8
7 0 22 8 33 18 10 10 34 25 52 32 17 8 32 18 32 22 0 5 5 8 11 8 6 0 23 8 37
18 39 27 193 92 220 92 12 0 22 -6 22 -13z m3178 -3 c21 -9 48 -21 62 -26 14
-6 43 -20 65 -31 22 -12 50 -26 62 -32 13 -5 23 -13 23 -17 0 -5 5 -8 11 -8 6
0 30 -13 54 -30 24 -16 48 -30 54 -30 6 0 11 -4 11 -10 0 -5 6 -10 13 -10 7 0
19 -9 27 -20 8 -11 18 -20 23 -20 5 0 14 -6 21 -12 7 -7 28 -24 46 -38 18 -14
39 -31 46 -37 7 -7 18 -13 25 -13 7 0 10 -3 7 -6 -4 -3 12 -22 35 -42 129
-114 282 -292 398 -462 24 -36 49 -68 54 -72 6 -4 6 -8 1 -8 -5 0 -2 -8 6 -17
21 -26 91 -147 133 -233 100 -205 190 -479 210 -644 3 -27 8 -53 10 -57 20
-31 27 -629 11 -979 -4 -107 -9 -197 -11 -200 -2 -3 -6 -93 -10 -200 -4 -107
-8 -207 -11 -222 -7 -46 -7 -600 0 -678 7 -76 25 -208 32 -245 3 -11 9 -41 14
-66 15 -79 60 -191 111 -279 33 -55 55 -86 108 -145 27 -31 137 -105 155 -105
9 0 16 -4 16 -8 0 -4 21 -14 48 -21 26 -8 53 -18 60 -24 6 -5 12 -7 12 -5 0 3
30 -1 68 -8 69 -13 277 -13 342 1 54 11 161 45 205 65 107 48 260 125 263 132
2 5 10 8 18 8 14 0 55 20 64 31 3 3 22 12 43 20 20 7 37 17 37 21 0 4 6 8 14
8 12 0 44 14 118 51 10 5 24 9 32 9 8 0 16 4 18 9 2 6 15 12 30 15 15 2 31 7
36 10 5 3 19 7 33 10 13 3 51 12 84 21 78 21 178 29 345 29 152 0 388 -11 401
-20 5 -3 35 -7 66 -9 102 -7 417 -65 548 -100 28 -8 61 -17 75 -20 14 -4 32
-9 40 -12 8 -3 24 -8 35 -10 11 -2 45 -12 76 -23 30 -11 61 -20 67 -20 7 0 31
-9 55 -19 52 -23 78 -33 97 -37 13 -3 45 -16 82 -35 10 -5 25 -9 33 -9 8 0 15
-4 15 -10 0 -5 7 -10 15 -10 13 0 192 -89 276 -137 20 -12 47 -27 60 -35 12
-7 32 -21 43 -30 11 -10 26 -18 33 -18 7 0 13 -4 13 -10 0 -5 7 -10 15 -10 8
0 15 -4 15 -8 0 -5 11 -15 25 -22 31 -16 31 -29 4 -83 -12 -23 -22 -44 -21
-47 0 -3 -8 -25 -19 -50 -12 -25 -22 -54 -25 -64 -2 -11 -9 -23 -16 -28 -7 -4
-10 -8 -6 -8 4 0 -7 -30 -24 -67 -16 -38 -39 -88 -50 -113 -32 -70 -190 -384
-197 -390 -3 -3 -7 -12 -9 -20 -2 -8 -11 -23 -19 -32 -9 -10 -13 -18 -9 -18 4
0 -2 -13 -13 -29 -11 -15 -18 -31 -14 -35 3 -3 2 -6 -4 -6 -5 0 -18 -18 -28
-40 -10 -22 -22 -40 -27 -40 -5 0 -6 -5 -3 -10 3 -5 1 -10 -4 -10 -6 0 -10 -3
-9 -7 1 -5 -5 -19 -13 -33 -9 -14 -31 -51 -49 -82 -19 -32 -38 -58 -43 -58 -4
0 -5 -4 -2 -10 3 -6 1 -10 -4 -10 -6 0 -10 -3 -9 -7 3 -9 -73 -126 -84 -131
-5 -2 -6 -7 -3 -12 3 -5 -1 -14 -8 -22 -7 -7 -24 -29 -37 -48 -13 -19 -29 -38
-35 -42 -5 -4 -7 -8 -2 -8 8 0 -61 -101 -77 -112 -6 -4 -7 -8 -2 -8 5 0 -1 -9
-14 -20 -13 -11 -20 -20 -16 -20 8 0 -82 -121 -99 -132 -6 -5 -6 -8 0 -8 6 0
6 -3 -1 -8 -5 -4 -44 -52 -86 -107 -41 -55 -87 -113 -102 -130 -42 -47 -45
-52 -39 -59 4 -3 -2 -6 -12 -6 -10 0 -16 -3 -12 -6 3 -3 -5 -18 -19 -33 -30
-32 -35 -38 -119 -136 -38 -44 -78 -88 -89 -97 -10 -10 -17 -18 -14 -18 6 0
-28 -36 -235 -249 -76 -77 -143 -141 -149 -141 -6 0 -9 -3 -5 -6 3 -3 -9 -19
-26 -34 -18 -16 -52 -48 -77 -70 -71 -65 -99 -84 -104 -68 -2 7 -14 53 -26
102 -13 49 -33 115 -45 147 -13 32 -20 60 -17 63 3 3 0 6 -6 6 -7 0 -12 7 -12
16 0 25 -117 244 -141 264 -3 3 -12 16 -19 29 -13 26 -18 32 -60 79 -65 73
-121 132 -126 132 -2 0 -18 13 -34 30 -16 16 -33 30 -38 30 -5 0 -15 7 -22 15
-7 8 -26 22 -44 31 -112 60 -183 94 -197 94 -9 0 -19 3 -23 7 -4 4 -19 9 -33
11 -15 2 -34 7 -42 11 -9 4 -35 9 -58 10 -23 1 -54 6 -69 10 -35 9 -168 -5
-262 -29 -46 -11 -174 -60 -182 -69 -3 -4 -26 -17 -52 -30 -26 -13 -56 -32
-67 -42 -11 -11 -23 -19 -26 -19 -6 0 -55 -42 -101 -88 -18 -17 -40 -32 -49
-32 -14 0 -53 18 -65 30 -10 10 -65 41 -82 47 -10 3 -18 9 -18 14 0 5 -7 9
-15 9 -8 0 -15 5 -15 10 0 6 -7 10 -15 10 -8 0 -15 4 -15 8 0 5 -12 15 -27 23
-16 8 -33 19 -39 24 -6 6 -26 21 -44 35 -55 41 -95 75 -98 83 -2 4 -8 7 -13 7
-11 0 -330 319 -369 369 -14 18 -34 42 -45 54 -11 12 -36 42 -55 67 -19 25
-39 48 -45 52 -5 4 -7 8 -3 8 4 0 -3 10 -15 23 -12 13 -29 33 -37 46 -8 13
-23 33 -32 44 -10 12 -21 27 -26 32 -13 16 -196 297 -222 340 -13 22 -30 46
-37 53 -7 8 -11 18 -8 23 4 5 2 9 -3 9 -7 0 -114 205 -142 275 -40 95 -88 278
-106 400 -3 22 -8 51 -10 65 -23 144 -23 511 1 675 2 17 6 50 9 75 7 65 33
208 51 281 9 35 18 75 21 89 3 14 11 50 19 81 8 30 16 64 18 75 8 42 29 140
35 154 3 8 7 26 9 40 2 14 11 52 20 85 8 33 17 69 19 80 2 11 11 48 19 83 19
77 43 181 57 247 6 28 18 75 26 105 9 30 17 64 18 75 1 11 5 30 8 43 3 12 8
32 11 45 3 12 14 58 24 102 11 44 22 92 25 108 14 66 17 78 26 102 5 14 8 25
5 25 -2 0 2 21 10 48 7 26 16 65 21 87 4 22 9 45 10 50 3 9 23 92 39 160 57
246 79 455 71 670 -8 198 -11 229 -43 385 -28 142 -28 140 -36 160 -3 8 -13
40 -22 70 -36 114 -129 327 -176 400 -9 14 -40 62 -69 108 -29 45 -57 82 -62
82 -6 0 -8 7 -4 15 3 9 0 15 -9 15 -8 0 -15 4 -15 8 0 22 -201 233 -275 287
-22 17 -45 35 -51 40 -6 6 -26 21 -44 35 -18 14 -39 31 -46 38 -7 6 -15 12
-18 12 -4 0 -29 15 -56 33 -75 48 -62 76 18 41z"/>
<path d="M8872 16173 c-6 -2 -10 -9 -6 -14 3 -5 1 -9 -5 -9 -5 0 -34 -24 -64
-52 -81 -78 -278 -262 -287 -268 -4 -3 -20 -30 -35 -60 -23 -45 -28 -67 -27
-120 0 -36 4 -79 8 -97 l6 -31 -36 8 c-20 4 -59 20 -87 35 -34 18 -60 24 -76
20 -22 -5 -23 -9 -18 -48 6 -40 11 -64 33 -147 5 -19 19 -56 30 -82 12 -26 22
-52 22 -57 0 -17 -30 -12 -95 14 -71 30 -74 30 -90 8 -10 -14 -9 -27 6 -71 10
-30 24 -61 30 -68 6 -8 9 -14 5 -14 -7 0 35 -68 76 -121 15 -20 24 -39 20 -43
-4 -4 -2 -6 3 -4 6 2 22 -8 37 -22 37 -36 58 -52 103 -80 22 -13 42 -28 43
-32 2 -4 9 -8 15 -8 7 0 45 -14 86 -30 40 -17 82 -30 92 -30 10 0 20 -3 20 -7
5 -30 3 -207 -2 -215 -4 -6 -42 -14 -85 -19 -44 -4 -92 -10 -109 -13 -16 -3
-46 -8 -65 -12 -83 -14 -118 -21 -175 -38 -33 -10 -68 -22 -77 -27 -10 -5 -24
-9 -32 -9 -16 0 -97 -32 -183 -71 -34 -16 -67 -29 -72 -29 -6 0 -11 -3 -11 -7
0 -5 -25 -19 -55 -33 -30 -14 -55 -28 -55 -32 0 -5 -7 -8 -15 -8 -8 0 -15 -4
-15 -10 0 -5 -6 -10 -14 -10 -8 0 -16 -3 -18 -8 -1 -4 -18 -17 -36 -28 l-33
-21 88 -91 c48 -50 101 -105 116 -121 27 -29 61 -41 69 -23 2 4 44 27 93 51
50 24 102 49 116 57 14 7 29 11 33 7 3 -3 6 -2 6 4 0 5 19 16 43 23 23 7 51
16 62 20 11 5 31 11 45 14 14 3 52 12 85 20 81 21 157 31 235 31 l65 0 0 -230
0 -230 -50 -6 c-28 -4 -75 -10 -105 -13 -72 -7 -157 -21 -250 -40 -41 -8 -86
-17 -100 -20 -35 -7 -171 -42 -195 -51 -11 -4 -29 -10 -40 -15 -11 -4 -51 -18
-90 -31 -38 -12 -81 -29 -94 -35 -14 -7 -28 -11 -33 -8 -4 3 -8 0 -8 -5 0 -6
-7 -11 -15 -11 -8 0 -30 -9 -50 -20 -20 -11 -42 -20 -49 -20 -8 0 -16 -3 -18
-8 -1 -4 -34 -23 -73 -42 -38 -19 -71 -38 -73 -42 -2 -5 -8 -8 -14 -8 -6 0
-44 -22 -84 -50 -40 -27 -76 -50 -79 -50 -3 0 -13 -8 -22 -17 -17 -17 -15 -20
44 -75 33 -31 58 -59 55 -62 -3 -3 0 -6 7 -6 6 0 48 -35 92 -79 l79 -78 43 26
c23 14 65 37 92 51 28 14 52 28 53 33 2 4 10 7 19 7 8 0 21 7 30 15 8 8 19 13
24 10 5 -4 9 -1 9 4 0 6 9 11 20 11 11 0 20 5 20 10 0 6 6 10 13 10 7 0 31 9
53 19 41 20 256 91 334 111 25 6 59 15 75 20 17 5 54 11 83 14 30 3 58 8 63
11 4 3 59 8 121 11 l113 6 0 -198 0 -198 -28 -7 c-15 -4 -55 -10 -89 -13 -33
-4 -64 -8 -68 -11 -3 -2 -24 -6 -46 -9 -21 -2 -50 -7 -64 -10 -14 -4 -38 -8
-55 -11 -27 -4 -59 -11 -165 -35 -87 -20 -233 -61 -320 -90 -52 -18 -102 -33
-110 -35 -8 -2 -33 -11 -55 -20 -22 -10 -51 -22 -65 -28 -14 -5 -36 -14 -50
-20 -14 -5 -34 -13 -45 -17 -11 -5 -53 -23 -94 -42 -41 -18 -76 -31 -79 -30
-3 2 -8 0 -11 -5 -3 -4 -42 -27 -86 -49 -141 -71 -210 -109 -213 -116 -2 -5
-10 -8 -18 -8 -8 0 -14 -4 -14 -10 0 -5 -7 -10 -15 -10 -24 0 -18 -18 25 -81
22 -32 40 -61 40 -64 0 -3 5 -11 10 -18 17 -20 110 -161 113 -172 3 -9 52 9
67 25 3 3 28 16 55 30 28 14 52 27 55 30 10 10 95 50 108 50 6 0 12 5 12 10 0
6 5 10 12 10 11 0 64 24 181 81 22 11 45 19 53 19 8 0 14 5 14 10 0 6 6 10 14
10 11 0 41 10 141 50 11 4 36 13 55 20 19 7 44 16 55 20 11 4 54 18 95 29 41
12 89 26 105 31 17 5 66 16 109 25 44 9 82 17 85 19 3 2 31 7 61 10 30 4 69 8
85 11 72 11 116 14 128 10 9 -4 12 -57 12 -228 -1 -122 1 -229 3 -237 2 -13
33 -15 198 -15 142 0 197 3 202 12 4 7 8 114 7 238 0 173 3 226 13 230 11 4
47 0 197 -20 53 -7 159 -27 175 -33 8 -3 24 -7 35 -9 48 -9 222 -58 260 -73
11 -4 49 -18 85 -30 36 -12 83 -31 104 -41 22 -11 43 -19 48 -19 7 0 61 -23
183 -80 33 -15 78 -36 100 -46 22 -10 42 -20 45 -23 3 -4 37 -22 75 -41 39
-19 72 -38 73 -42 2 -5 12 -8 23 -8 10 0 19 -3 19 -8 0 -8 59 -37 64 -31 15
22 33 56 34 62 1 4 6 13 12 20 41 48 53 65 66 92 7 16 25 43 39 59 13 16 27
37 30 47 4 11 10 19 14 19 4 0 7 9 8 20 1 11 -4 20 -13 20 -8 0 -14 5 -14 10
0 6 -6 10 -14 10 -8 0 -16 3 -18 8 -1 4 -25 18 -53 32 -27 14 -52 27 -55 30
-11 11 -136 70 -147 70 -7 0 -13 3 -13 8 0 8 -49 32 -67 32 -7 0 -13 5 -13 10
0 6 -6 10 -13 10 -12 0 -80 29 -119 50 -10 6 -25 10 -33 10 -8 0 -15 5 -15 10
0 6 -10 10 -23 10 -13 0 -27 4 -33 9 -15 14 -301 108 -444 145 -149 39 -399
90 -495 101 -72 9 -114 19 -117 28 -2 7 -4 95 -3 197 l0 185 80 0 c44 0 105
-3 135 -8 30 -4 71 -10 90 -13 42 -7 199 -43 220 -51 8 -3 20 -7 26 -8 18 -4
136 -45 164 -57 14 -6 34 -14 45 -18 11 -5 40 -17 65 -27 25 -11 60 -26 78
-34 17 -8 32 -17 32 -21 0 -5 9 -8 19 -8 11 0 21 -3 23 -7 2 -5 26 -19 53 -33
28 -13 52 -27 55 -30 3 -3 22 -14 43 -26 l38 -21 149 146 149 145 -132 81
c-73 45 -147 88 -164 96 -18 8 -33 17 -33 21 0 5 -9 8 -20 8 -11 0 -20 5 -20
10 0 6 -5 10 -12 10 -6 0 -39 13 -72 29 -34 16 -81 35 -104 42 -23 6 -42 17
-42 22 0 6 -3 8 -6 5 -3 -4 -36 5 -72 18 -113 41 -247 75 -407 104 -27 5 -61
11 -75 14 -56 10 -169 25 -232 31 -54 5 -68 10 -69 23 -1 9 -2 115 -3 235 l-1
218 70 -4 c225 -14 381 -59 623 -180 l122 -61 115 118 c109 112 132 146 102
146 -7 0 -23 9 -35 20 -12 11 -25 20 -31 20 -5 0 -11 4 -13 8 -3 10 -14 16
-154 87 -125 63 -158 77 -271 114 -137 45 -288 76 -423 87 -41 4 -82 10 -90
14 -12 6 -15 30 -15 116 l0 107 50 14 c28 8 59 18 70 22 81 35 143 68 181 97
24 19 49 34 54 34 6 0 9 3 7 8 -1 4 11 21 26 37 35 37 110 152 113 173 2 8 9
19 16 23 7 5 10 9 5 9 -4 0 -1 14 8 30 9 17 13 30 10 30 -3 0 -1 8 4 18 20 37
-17 64 -57 42 -23 -13 -109 -40 -127 -40 -8 0 -15 7 -15 15 0 8 3 15 8 15 4 0
13 15 20 33 7 17 18 40 23 49 5 10 9 27 9 37 0 11 5 23 10 26 6 4 10 12 8 18
-1 7 4 38 11 70 21 96 2 108 -91 58 -30 -15 -69 -30 -87 -33 l-33 -5 8 36 c13
65 12 125 -3 171 -15 45 -62 119 -75 120 -12 0 -56 48 -50 54 3 3 1 6 -5 6
-10 0 -76 59 -226 203 -38 37 -73 67 -76 66 -3 0 -12 -3 -19 -6z m149 -370
c120 -117 121 -117 116 -158 -3 -22 -13 -62 -22 -90 -25 -77 -13 -165 22 -165
4 0 14 -9 21 -20 7 -11 18 -20 25 -20 17 0 67 -23 67 -31 0 -4 -16 -23 -35
-42 -21 -21 -33 -42 -31 -54 8 -38 47 -111 76 -138 17 -16 30 -34 30 -39 0
-19 -171 -96 -280 -126 -25 -7 -59 -16 -76 -21 l-30 -9 0 -689 c1 -379 4 -693
8 -697 4 -3 40 -8 80 -9 66 -2 190 -13 228 -21 8 -1 30 -3 48 -3 22 -1 32 -6
32 -16 0 -16 -12 -16 -200 0 -41 3 -102 7 -136 8 l-60 3 0 -388 c-1 -213 3
-388 8 -388 4 0 8 -7 8 -16 0 -8 -4 -13 -9 -10 -4 3 -8 -103 -7 -235 1 -133
-2 -246 -5 -251 -19 -30 -24 22 -23 239 1 155 -2 240 -9 245 -8 4 -7 11 0 20
7 9 10 140 8 393 -1 209 -2 383 -3 386 -2 6 -24 5 -187 -6 -55 -4 -116 -8
-135 -9 -19 -2 -51 -6 -70 -9 -75 -14 -120 -15 -120 -2 0 11 85 28 205 40 28
3 70 8 95 11 25 4 79 8 121 9 42 1 81 5 86 8 6 4 10 263 9 698 l-1 693 -72 17
c-102 25 -148 42 -228 84 -93 49 -96 52 -62 80 15 13 27 28 27 34 0 5 4 11 8
13 4 2 18 27 31 56 19 45 20 56 9 70 -7 9 -17 23 -23 30 -5 7 -16 20 -24 28
-7 8 -12 16 -10 17 2 1 14 8 26 15 13 6 29 12 37 12 8 0 30 16 50 36 30 30 36
43 36 79 0 24 -9 72 -20 107 -33 104 -34 101 100 231 66 64 124 117 130 117 5
0 64 -53 131 -117z m-781 -2400 c0 -7 -3 -13 -7 -14 -5 0 -20 -2 -35 -4 -27
-4 -42 19 -18 27 24 8 60 2 60 -9z"/>
<path d="M8845 11015 c-16 -13 -35 -24 -42 -25 -6 0 -13 -4 -15 -8 -1 -4 -23
-23 -48 -42 -68 -53 -138 -127 -169 -180 -13 -23 -25 -58 -38 -110 -9 -34 -8
-124 1 -185 l8 -50 -55 -13 c-72 -16 -158 -51 -286 -115 l-104 -51 -23 29
c-12 17 -32 40 -43 53 -11 12 -18 22 -15 22 3 0 -9 12 -28 27 -18 15 -35 30
-38 33 -11 12 -97 50 -135 59 -57 15 -196 13 -295 -4 -103 -19 -122 -24 -115
-35 3 -4 -2 -26 -10 -49 -8 -23 -14 -42 -14 -44 1 -1 -3 -40 -7 -87 -4 -47 -7
-98 -7 -115 4 -89 33 -185 66 -222 11 -13 17 -23 13 -23 -4 0 14 -20 40 -45
25 -25 48 -45 51 -45 14 0 74 -53 66 -59 -13 -9 -103 -189 -103 -206 0 -8 -4
-15 -8 -15 -5 0 -9 -6 -9 -12 -1 -7 -12 -46 -26 -85 -14 -40 -24 -73 -21 -73
3 0 0 -9 -6 -20 -10 -19 -17 -20 -68 -13 -145 20 -262 -10 -352 -90 -16 -15
-35 -27 -42 -27 -6 0 -9 -3 -5 -6 3 -3 -4 -16 -16 -29 -36 -36 -67 -75 -61
-75 3 0 -1 -6 -8 -14 -7 -7 -20 -24 -28 -36 -8 -12 -20 -28 -27 -35 -7 -7 -9
-15 -6 -19 4 -3 1 -6 -5 -6 -7 0 -12 -7 -12 -15 0 -16 44 -90 67 -113 7 -7 13
-17 13 -22 0 -22 158 -169 205 -191 28 -13 53 -28 57 -33 4 -6 8 -8 8 -5 0 3
28 0 63 -6 48 -9 77 -9 132 2 38 7 72 9 75 5 4 -4 15 -36 25 -72 25 -88 64
-181 117 -282 35 -67 42 -87 32 -96 -7 -7 -17 -12 -22 -12 -5 0 -23 -13 -40
-30 -18 -16 -34 -30 -38 -30 -3 0 -12 -7 -20 -15 -9 -8 -13 -15 -9 -15 3 0 -5
-12 -19 -27 -14 -15 -23 -30 -20 -35 3 -4 1 -8 -5 -8 -10 0 -27 -38 -23 -52 1
-5 -3 -8 -10 -8 -6 0 -9 -3 -6 -6 4 -3 2 -20 -3 -37 -13 -43 -12 -168 1 -253
22 -140 26 -154 46 -155 8 -1 17 -2 22 -3 4 -1 30 -6 57 -11 28 -4 57 -10 65
-12 8 -2 58 -4 110 -5 150 -3 232 27 324 118 32 32 67 74 61 74 -3 0 2 9 12
20 19 19 63 18 63 -1 0 -5 7 -9 15 -9 8 0 15 -4 15 -10 0 -5 7 -10 15 -10 8 0
29 -8 47 -18 18 -10 60 -29 93 -41 33 -13 69 -27 80 -32 11 -4 40 -13 65 -19
84 -21 80 -18 69 -48 -30 -77 -12 -231 37 -322 28 -52 151 -171 237 -228 l75
-51 48 31 c27 17 51 34 54 37 3 4 21 18 40 31 44 31 67 49 94 76 34 34 66 74
59 74 -3 0 1 8 10 18 51 57 74 196 52 319 -6 33 -4 44 6 47 8 2 48 14 89 27
41 13 77 24 80 24 29 8 212 95 220 105 3 4 15 9 26 12 21 5 39 -8 60 -44 22
-37 78 -98 91 -98 8 0 11 -4 8 -10 -3 -5 3 -10 14 -10 12 0 21 -4 21 -8 0 -5
30 -19 67 -32 53 -19 86 -23 158 -23 85 1 106 3 200 18 46 8 98 26 91 32 -2 3
0 19 5 36 30 101 39 287 17 360 -6 23 -12 44 -12 47 -7 45 -146 210 -177 210
-17 0 -39 26 -29 36 13 14 103 197 103 212 0 6 3 12 7 12 4 0 7 6 8 13 0 6 12
46 26 87 14 41 26 80 26 87 0 21 21 24 85 10 82 -17 149 -7 258 37 15 6 27 14
27 18 0 5 6 8 14 8 8 0 16 3 18 8 2 4 18 19 36 35 19 15 31 27 28 27 -3 0 10
16 29 35 19 19 35 39 35 45 0 5 4 10 8 10 4 0 19 18 32 40 14 22 29 40 33 40
5 0 6 4 3 9 -3 5 1 14 9 21 8 7 15 20 15 30 0 15 -8 28 -50 77 -5 7 -10 15
-10 18 0 18 -108 137 -170 189 -69 56 -210 94 -290 78 -19 -4 -50 -7 -68 -7
-34 0 -34 0 -68 100 -19 55 -37 109 -41 120 -3 11 -30 66 -59 123 -39 73 -50
102 -39 102 8 0 15 5 15 10 0 6 9 10 21 10 11 0 17 5 14 10 -3 6 -3 10 2 10
14 0 103 87 96 94 -3 3 -2 6 4 6 17 0 53 86 66 157 16 85 5 237 -23 344 -11
40 -34 54 -93 58 -20 1 -48 6 -61 11 -33 12 -229 11 -268 -2 -55 -18 -140 -62
-145 -75 -3 -7 -11 -13 -19 -13 -8 0 -14 -4 -14 -8 0 -5 -13 -22 -30 -38 -16
-16 -30 -35 -30 -41 0 -7 -5 -13 -11 -13 -5 0 -8 -4 -5 -9 3 -5 -2 -12 -11
-15 -11 -4 -59 14 -127 48 -116 57 -273 116 -308 116 -19 0 -20 4 -13 48 26
164 -8 293 -102 390 -13 13 -23 28 -23 34 0 6 -3 9 -6 5 -4 -3 -12 -1 -19 6
-34 32 -66 57 -76 57 -5 0 -8 4 -5 8 2 4 -7 13 -22 20 -15 6 -40 23 -56 37
-36 31 -53 31 -91 0z m87 -329 c43 -39 68 -98 68 -163 0 -54 -13 -129 -27
-163 -3 -8 -8 -26 -10 -39 -2 -13 -10 -38 -17 -55 -14 -36 -24 -1025 -9 -1027
29 -2 59 -11 67 -19 6 -6 18 -10 27 -10 10 0 19 -6 22 -12 3 -10 9 -10 30 1
14 8 24 18 21 23 -3 4 -1 8 5 8 5 0 36 27 68 60 32 34 180 184 330 335 150
151 269 275 266 275 -3 0 1 8 10 18 10 10 14 22 10 25 -3 4 -1 7 5 7 7 0 11 3
10 8 -3 12 59 115 98 160 52 61 101 84 174 80 l59 -3 6 -40 c4 -22 1 -53 -5
-70 -6 -16 -11 -31 -11 -33 5 -13 -72 -102 -89 -102 -5 0 -10 -4 -10 -8 0 -5
-12 -15 -27 -23 -16 -8 -30 -16 -33 -19 -3 -3 -27 -16 -55 -30 -27 -13 -61
-33 -75 -43 -28 -20 -240 -227 -233 -227 2 0 -17 -18 -42 -40 -25 -22 -43 -40
-38 -40 4 0 -4 -8 -20 -18 -15 -10 -24 -22 -20 -25 3 -4 1 -7 -5 -7 -6 0 -88
-76 -182 -170 l-170 -170 25 -50 c14 -27 25 -59 25 -70 0 -20 3 -20 510 -20
317 0 511 4 515 10 3 6 16 10 29 10 12 0 26 4 31 8 15 13 105 32 170 37 77 6
124 -7 174 -52 34 -30 41 -41 36 -61 -6 -25 -48 -72 -64 -72 -5 0 -11 -5 -13
-12 -3 -7 -36 -13 -91 -14 -69 -3 -105 2 -179 23 -51 15 -95 29 -98 32 -3 3
-233 7 -512 9 l-508 3 0 -25 c0 -14 -5 -28 -10 -31 -6 -4 -8 -10 -6 -14 3 -4
-3 -21 -13 -38 -23 -37 -21 -41 74 -134 42 -41 196 -192 342 -336 146 -145
269 -263 274 -263 5 0 9 -4 9 -10 0 -5 9 -10 20 -10 11 0 20 -3 20 -8 0 -4 15
-14 33 -21 31 -14 115 -67 148 -93 55 -44 91 -156 68 -210 -10 -25 -16 -28
-61 -28 -30 0 -65 8 -89 21 -39 20 -109 81 -109 95 0 4 -11 21 -23 38 -13 17
-39 62 -57 99 -18 37 -46 79 -62 92 -16 14 -28 25 -26 25 2 0 -142 146 -319
325 l-323 325 -34 -19 c-19 -11 -51 -23 -71 -27 l-37 -7 5 -496 c6 -508 7
-537 21 -559 16 -25 46 -174 46 -226 0 -30 -7 -70 -15 -90 -19 -44 -71 -96
-97 -96 -24 0 -62 38 -89 90 -18 34 -20 51 -16 113 7 83 9 96 27 157 8 25 14
48 16 53 1 4 3 8 4 10 9 9 12 108 13 547 l2 494 -35 11 c-19 5 -50 18 -68 27
l-34 17 -311 -314 c-172 -173 -310 -315 -308 -315 2 0 -15 -17 -39 -37 -23
-20 -49 -54 -57 -75 -8 -21 -18 -38 -22 -38 -4 0 -8 -6 -8 -13 0 -16 -75 -128
-109 -162 -54 -54 -160 -83 -204 -55 -19 12 -18 115 1 150 19 35 55 80 64 80
4 0 15 8 24 18 18 19 67 51 94 59 9 3 17 9 17 13 0 4 18 13 40 20 22 7 40 17
40 22 0 4 4 8 9 8 5 0 145 135 312 300 166 165 306 300 311 300 5 0 7 3 5 8
-3 4 10 18 28 32 50 37 55 56 28 107 -12 24 -22 46 -22 48 1 3 -1 14 -4 25 -5
20 -13 20 -504 16 -484 -5 -563 -9 -563 -27 0 -5 -12 -9 -26 -9 -14 0 -34 -5
-45 -10 -31 -17 -169 -24 -216 -11 -55 15 -106 63 -106 101 0 26 22 60 39 60
4 0 12 7 18 15 22 30 209 42 241 15 6 -5 14 -7 17 -4 3 3 22 -2 43 -10 20 -9
39 -15 43 -14 4 1 19 -4 34 -10 18 -7 187 -11 526 -12 l499 -1 6 31 c4 16 7
33 8 38 1 4 8 16 15 27 8 11 14 28 14 38 0 20 -364 387 -383 387 -6 0 -8 2 -5
5 6 6 -23 36 -110 118 -28 26 -48 47 -44 47 4 0 -5 8 -21 18 -15 10 -24 22
-20 25 3 4 -2 7 -12 7 -10 0 -15 3 -12 7 4 3 -5 15 -20 25 -16 10 -24 18 -19
18 18 0 -66 59 -130 92 -102 51 -114 58 -114 69 0 5 -5 9 -11 9 -14 0 -65 55
-85 93 -20 38 -27 97 -15 130 10 25 15 27 67 27 31 0 71 -7 89 -16 50 -23 107
-93 170 -204 53 -94 72 -116 400 -447 l344 -347 39 22 c34 19 63 28 95 31 5 1
8 225 6 499 -2 441 -5 503 -20 547 -10 27 -15 53 -13 57 3 5 0 8 -7 8 -7 0
-10 3 -7 6 3 3 0 29 -8 57 -32 122 -2 243 71 285 28 16 36 15 67 -12z m258
-650 c79 -22 154 -50 158 -58 2 -5 10 -8 17 -8 13 0 78 -35 139 -75 l24 -16
-76 -78 c-43 -43 -117 -120 -167 -171 -85 -87 -91 -92 -124 -86 -19 3 -40 11
-47 18 -12 12 -17 172 -15 440 1 64 -6 61 91 34z m-510 -13 c1 -16 2 -124 3
-241 l2 -214 -34 -14 c-18 -8 -40 -14 -49 -14 -9 0 -82 68 -163 150 -81 83
-145 150 -142 150 3 0 -5 9 -18 19 -24 20 -24 20 -4 35 36 28 203 107 255 121
3 1 12 5 20 8 27 11 85 25 108 26 17 1 22 -5 22 -26z m1187 -509 c12 -19 19
-34 15 -34 -4 0 -2 -4 4 -8 26 -18 118 -280 105 -300 -3 -5 -113 -12 -243 -14
l-237 -5 -19 45 -20 45 48 46 c26 25 105 102 175 170 114 110 130 122 139 106
6 -9 21 -33 33 -51z m-1829 -11 c33 -32 105 -102 161 -156 55 -54 101 -104
101 -111 0 -8 -7 -30 -16 -51 l-15 -37 -107 6 c-59 3 -167 7 -241 8 l-133 1 7
51 c3 28 10 55 14 61 5 5 11 22 15 38 4 15 18 52 31 82 14 29 25 59 25 64 0 6
5 11 10 11 6 0 10 4 10 9 0 23 43 81 60 81 11 0 46 -26 78 -57z m242 -784 c6
-10 7 -19 3 -19 -4 0 -2 -5 5 -12 7 -7 12 -19 12 -28 0 -17 -155 -170 -173
-170 -6 0 -8 -3 -4 -6 8 -8 -18 -34 -33 -34 -6 0 -8 -4 -5 -10 3 -5 -1 -10
-10 -10 -9 0 -13 -4 -10 -10 3 -5 1 -10 -5 -10 -6 0 -27 -18 -47 -40 -42 -45
-65 -50 -81 -17 -6 12 -24 45 -39 72 -37 66 -67 143 -93 235 -11 41 -20 75
-20 75 0 0 110 1 245 2 232 1 246 0 255 -18z m1711 9 c11 -18 -63 -245 -85
-260 -6 -4 -7 -8 -3 -8 7 0 -25 -63 -59 -115 -12 -19 -20 -22 -33 -15 -33 18
-331 316 -331 331 0 9 7 30 15 47 l16 31 237 -1 c130 -1 240 -5 243 -10z
m-1359 -381 c7 -8 18 -12 25 -10 6 2 14 -1 18 -6 5 -9 9 -309 6 -457 -1 -31
-2 -32 -38 -27 -21 3 -44 10 -50 15 -7 6 -13 8 -13 4 0 -3 -12 -1 -27 5 -16 6
-35 12 -44 14 -16 3 -165 74 -207 99 -45 26 -46 32 -5 75 195 206 291 300 305
301 9 0 23 -6 30 -13z m688 -117 c70 -71 126 -130 124 -130 -2 0 16 -18 39
-39 37 -36 40 -42 27 -55 -20 -20 -166 -96 -185 -96 -8 0 -15 -4 -15 -10 0 -5
-10 -10 -23 -10 -13 0 -27 -4 -32 -9 -10 -8 -79 -28 -126 -35 -22 -3 -28 0
-30 17 -9 53 -3 462 6 466 6 2 19 10 30 17 11 8 28 14 38 14 11 0 74 -56 147
-130z"/>
<path d="M4559 3578 c-13 -5 -36 -10 -51 -10 -15 -1 -25 -5 -22 -10 3 -4 -6
-8 -20 -8 -14 0 -26 -4 -26 -10 0 -5 -6 -10 -13 -10 -18 0 -67 -24 -67 -32 0
-5 -4 -8 -10 -8 -11 0 -32 -17 -91 -72 -22 -21 -37 -38 -34 -38 4 0 0 -7 -7
-15 -21 -23 -33 -40 -35 -50 -1 -6 -10 -30 -19 -55 -36 -100 4 -214 115 -330
37 -39 65 -73 62 -75 -2 -3 3 -5 13 -5 9 0 14 -4 11 -10 -3 -5 -1 -10 5 -10 6
0 21 -10 34 -22 47 -47 86 -78 97 -78 5 0 7 -4 4 -10 -3 -5 -1 -10 5 -10 6 0
17 -6 25 -12 22 -22 48 -42 100 -78 27 -19 55 -40 62 -47 7 -6 22 -15 33 -18
11 -3 20 -11 20 -16 0 -5 7 -9 15 -9 8 0 15 -3 15 -8 0 -7 22 -21 73 -44 15
-7 27 -16 27 -20 0 -4 6 -8 14 -8 8 0 16 -3 18 -7 3 -8 39 -28 173 -97 44 -23
82 -44 83 -48 2 -5 9 -8 15 -8 7 0 43 -15 82 -34 98 -48 142 -67 290 -126 72
-29 141 -57 155 -63 14 -5 34 -12 45 -14 11 -2 24 -8 29 -13 6 -6 18 -10 28
-10 10 0 26 -4 36 -10 9 -5 64 -23 122 -40 164 -49 174 -52 185 -59 6 -3 19
-7 29 -8 11 -2 65 -16 120 -32 56 -16 115 -32 131 -35 72 -15 81 -17 94 -22 8
-2 30 -7 50 -10 20 -3 43 -7 51 -10 18 -7 108 -23 165 -30 22 -2 46 -7 54 -9
7 -3 55 -8 105 -11 79 -5 95 -4 109 11 21 20 22 39 2 58 -8 8 -11 17 -8 21 4
3 2 6 -4 6 -5 0 -21 10 -35 23 -39 35 -80 67 -110 85 -16 9 -28 20 -28 24 0 4
-6 8 -14 8 -8 0 -16 3 -18 8 -1 4 -32 27 -68 51 -36 24 -67 47 -70 50 -3 3
-17 12 -32 20 -16 8 -28 18 -28 23 0 4 -5 8 -11 8 -12 0 -103 60 -107 72 -2 4
-10 8 -18 8 -8 0 -14 4 -14 9 0 5 -13 14 -30 21 -16 7 -30 16 -30 21 0 5 -7 9
-15 9 -8 0 -15 5 -15 10 0 6 -5 10 -10 10 -6 0 -20 9 -32 20 -12 11 -28 20
-35 20 -8 0 -11 5 -8 10 3 6 -3 10 -14 10 -12 0 -21 3 -21 8 0 4 -25 23 -55
42 -30 19 -55 38 -55 43 0 4 -7 7 -15 7 -8 0 -15 5 -15 10 0 6 -7 10 -15 10
-8 0 -15 5 -15 10 0 6 -7 10 -15 10 -8 0 -15 4 -15 8 0 4 -15 16 -32 27 -18
10 -42 27 -52 37 -11 10 -23 18 -27 18 -4 0 -14 6 -21 13 -7 7 -35 28 -63 47
-27 19 -51 37 -53 42 -2 4 -10 8 -17 8 -7 0 -15 3 -17 8 -1 4 -30 27 -63 52
-33 25 -61 48 -63 53 -2 4 -8 7 -13 7 -8 0 -31 17 -63 45 -6 6 -27 22 -46 35
-19 13 -40 29 -46 35 -6 5 -26 21 -44 35 -18 14 -39 31 -46 38 -7 6 -18 12
-24 12 -6 0 -8 5 -5 10 3 6 1 10 -4 10 -6 0 -24 11 -39 24 -15 14 -37 33 -49
43 -12 10 -40 34 -63 53 -23 19 -57 50 -75 68 -18 17 -39 32 -46 32 -7 0 -10
3 -6 6 6 6 -16 34 -27 34 -4 0 -55 49 -115 109 -101 100 -174 151 -215 151 -8
0 -17 4 -20 8 -7 12 -146 11 -177 0z m140 -244 c17 -4 28 -10 25 -15 -3 -5 0
-9 7 -9 6 0 35 -24 64 -52 29 -29 94 -91 145 -138 51 -47 103 -95 116 -107 13
-13 26 -23 30 -23 3 0 19 -13 34 -30 15 -16 31 -30 34 -30 3 0 14 -8 24 -17
39 -37 73 -63 83 -63 5 0 7 -4 4 -10 -3 -5 0 -10 7 -10 8 0 20 -9 28 -20 8
-11 19 -20 25 -20 6 0 17 -9 25 -20 8 -11 20 -20 26 -20 7 0 14 -4 16 -8 3 -8
71 -63 133 -107 16 -11 34 -26 41 -32 7 -7 15 -13 18 -13 6 0 14 -6 74 -57 15
-13 33 -23 40 -23 7 0 11 -4 8 -8 -2 -4 8 -13 23 -20 15 -7 37 -21 49 -32 12
-11 24 -20 27 -20 3 0 15 -9 27 -20 12 -11 34 -25 49 -32 15 -7 25 -16 23 -20
-3 -4 2 -8 10 -8 9 0 16 -4 16 -10 0 -5 7 -10 15 -10 8 0 15 -4 15 -10 0 -5 7
-10 15 -10 8 0 15 -4 15 -10 0 -5 7 -10 15 -10 8 0 15 -4 15 -10 0 -5 4 -10
10 -10 5 0 30 -15 54 -32 45 -33 61 -64 29 -54 -88 24 -170 51 -177 58 -6 4
-20 8 -32 8 -13 0 -26 5 -29 10 -3 6 -15 10 -26 10 -10 0 -27 4 -37 9 -9 6
-48 22 -87 36 -38 15 -85 33 -102 41 -18 8 -49 21 -68 29 -92 39 -116 50 -195
87 -47 22 -93 44 -104 50 -55 29 -92 51 -100 59 -6 5 -18 9 -28 9 -10 0 -18 4
-18 9 0 5 -8 11 -17 14 -19 6 -75 38 -83 48 -3 3 -20 12 -37 20 -18 8 -33 17
-33 21 0 5 -5 8 -10 8 -6 0 -20 9 -32 20 -12 11 -28 20 -35 20 -7 0 -13 5 -13
10 0 6 -7 10 -15 10 -8 0 -15 5 -15 10 0 6 -6 10 -13 10 -7 0 -19 9 -27 20 -8
11 -18 20 -23 20 -8 0 -117 86 -191 150 -58 51 -148 146 -161 170 -19 36 -8
74 33 115 65 65 158 89 261 69z"/>
<path d="M13015 3568 c-69 -23 -105 -47 -159 -105 -22 -23 -43 -40 -48 -37 -5
3 -7 2 -6 -3 2 -4 -18 -28 -43 -53 -85 -82 -170 -160 -175 -160 -3 0 -15 -10
-28 -22 -28 -28 -63 -58 -136 -118 -30 -25 -56 -48 -58 -52 -2 -5 -8 -8 -13
-8 -5 0 -17 -8 -27 -17 -21 -21 -76 -66 -110 -91 -13 -9 -47 -35 -76 -57 -29
-22 -68 -51 -86 -65 -18 -14 -39 -31 -46 -37 -7 -7 -17 -13 -23 -13 -6 0 -11
-4 -11 -8 0 -5 -12 -15 -27 -23 -16 -8 -30 -16 -33 -19 -3 -4 -27 -22 -55 -41
-27 -18 -52 -36 -55 -40 -3 -3 -41 -30 -85 -60 -165 -114 -220 -154 -223 -161
-2 -4 -9 -8 -16 -8 -7 0 -21 -8 -32 -17 -10 -10 -31 -24 -46 -32 -16 -8 -28
-18 -28 -23 0 -4 -7 -8 -15 -8 -8 0 -15 -4 -15 -10 0 -5 -7 -10 -15 -10 -8 0
-15 -4 -15 -10 0 -5 -7 -10 -15 -10 -8 0 -15 -3 -15 -7 0 -5 -23 -21 -51 -38
-28 -16 -57 -36 -64 -42 -8 -7 -18 -13 -24 -13 -6 0 -11 -4 -11 -10 0 -5 -7
-10 -15 -10 -8 0 -15 -4 -15 -8 0 -5 -12 -15 -27 -23 -16 -8 -30 -17 -33 -20
-3 -3 -27 -20 -55 -39 -27 -19 -52 -36 -55 -40 -10 -12 -101 -70 -111 -70 -6
0 -7 -4 -4 -10 3 -5 2 -10 -2 -10 -18 0 -101 -82 -107 -106 -11 -43 10 -52
110 -49 50 1 99 5 109 8 11 4 41 9 66 11 25 3 57 7 70 10 13 3 35 8 49 10 69
12 187 39 205 47 11 5 35 10 53 11 19 1 36 6 38 10 3 4 14 8 25 8 17 0 80 17
186 51 18 5 40 12 50 14 10 2 54 15 97 30 43 14 87 27 97 28 11 1 19 5 19 9 0
4 10 8 23 8 13 0 27 4 33 9 5 5 27 14 49 20 22 7 49 16 60 21 30 12 89 35 95
36 3 0 19 6 35 14 17 7 51 20 78 30 26 9 50 20 54 23 3 4 15 7 25 7 10 0 18 4
18 8 0 4 17 14 38 21 63 22 92 36 92 43 0 5 5 8 11 8 23 0 297 140 412 211 26
16 52 29 57 29 6 0 10 5 10 10 0 6 6 10 14 10 8 0 16 3 18 8 5 11 66 52 78 52
5 0 10 5 10 10 0 6 7 10 15 10 8 0 15 4 15 8 0 4 12 15 28 24 15 9 37 25 49
35 51 43 63 53 68 53 12 0 265 245 302 292 53 69 74 189 47 263 -9 22 -16 46
-16 53 -1 6 -5 12 -9 12 -4 0 -10 8 -13 18 -8 23 -83 102 -98 102 -6 0 -8 3
-5 6 8 8 -83 64 -144 88 -118 49 -219 56 -314 24z m229 -243 c15 -8 32 -15 37
-15 10 0 42 -25 75 -60 22 -23 30 -52 24 -89 -2 -16 -53 -74 -114 -130 -21
-20 -59 -55 -83 -78 -25 -24 -49 -43 -54 -43 -5 0 -9 -4 -9 -10 0 -5 -5 -10
-10 -10 -6 0 -23 -13 -39 -28 -17 -15 -42 -34 -58 -42 -15 -8 -33 -19 -39 -25
-32 -28 -55 -45 -60 -45 -3 0 -25 -13 -49 -30 -24 -16 -48 -30 -54 -30 -6 0
-11 -4 -11 -10 0 -5 -7 -10 -15 -10 -8 0 -15 -4 -15 -9 0 -5 -8 -11 -17 -14
-18 -6 -73 -37 -83 -47 -12 -12 -51 -30 -65 -30 -8 0 -15 -3 -15 -8 0 -4 -19
-16 -42 -28 -146 -72 -172 -84 -184 -84 -8 0 -14 -4 -14 -10 0 -5 -5 -10 -12
-10 -6 0 -43 -14 -82 -31 -144 -64 -156 -69 -166 -69 -6 0 -18 -4 -28 -9 -36
-18 -174 -72 -193 -75 -8 -1 -18 -4 -24 -8 -19 -12 -115 -37 -115 -30 0 4 -4
2 -8 -5 -10 -16 -72 -24 -72 -10 1 10 105 87 178 132 9 6 22 15 29 22 8 7 27
20 43 30 17 9 30 21 30 25 0 4 6 8 13 8 7 0 23 9 35 20 12 11 26 20 32 20 5 0
10 3 10 8 0 4 18 18 40 32 22 14 40 28 40 32 0 5 7 8 15 8 8 0 15 4 15 8 0 4
12 15 28 24 15 9 37 25 49 35 55 46 64 53 73 53 6 0 10 5 10 10 0 6 7 10 16
10 8 0 12 5 9 10 -3 6 -1 10 4 10 6 0 20 8 32 18 11 9 29 24 39 32 9 8 32 26
50 40 18 14 39 31 46 38 7 6 15 12 19 12 3 0 16 10 29 23 30 28 65 57 70 57 2
0 20 15 39 33 18 17 67 61 107 97 41 36 84 75 96 88 13 12 28 22 34 22 6 0 8
5 5 10 -3 6 -2 10 3 10 6 0 44 34 86 75 41 42 86 79 98 85 37 14 140 11 172
-5z"/>
<path d="M4298 5958 c-113 -18 -184 -32 -193 -38 -5 -3 -30 -13 -55 -20 -25
-8 -57 -22 -72 -32 -14 -10 -34 -18 -43 -18 -9 0 -13 -4 -10 -10 3 -5 -3 -10
-14 -10 -12 0 -21 -4 -21 -10 0 -5 -5 -10 -10 -10 -6 0 -22 -12 -37 -26 -24
-24 -24 -26 -7 -39 11 -8 30 -20 44 -27 33 -17 43 -25 98 -78 26 -25 73 -58
106 -73 32 -16 73 -38 90 -51 55 -41 108 -59 176 -61 36 -1 70 1 75 5 6 5 19
10 30 12 56 9 124 98 139 181 6 35 9 37 44 38 20 1 51 2 67 2 25 1 31 6 33 24
2 27 -35 113 -49 113 -5 0 -9 5 -9 12 0 18 -71 82 -115 103 -43 20 -182 27
-267 13z"/>
<path d="M13240 5953 c-16 -6 -31 -9 -34 -6 -3 4 -6 1 -6 -5 0 -7 -5 -12 -10
-12 -12 0 -104 -90 -93 -90 5 0 3 -4 -3 -8 -17 -12 -54 -91 -54 -115 0 -17 6
-22 23 -22 13 1 45 -1 72 -4 45 -6 49 -8 52 -36 21 -157 184 -244 340 -180 30
12 63 29 74 38 10 9 24 17 29 17 6 0 10 3 10 8 0 4 15 13 33 20 69 29 83 38
117 73 19 20 64 55 100 79 36 24 67 45 70 47 7 6 -43 48 -90 74 -25 13 -46 27
-48 32 -2 4 -8 7 -13 7 -5 0 -28 9 -52 19 -23 10 -53 22 -67 26 -42 11 -103
25 -135 30 -16 3 -41 8 -55 12 -46 11 -231 9 -260 -4z"/>
</g>
</svg>
